<svg width="42" height="42" fill="152A6B" xmlns="http://www.w3.org/2000/svg">
	<path d="M40.219 36.313h-2.34V4.905A3.91 3.91 0 0033.975 1H4.906A3.91 3.91 0 001 4.906c0 .432.35.782.781.782H7.25v11.806a.781.781 0 101.563 0V4.906c0-.878-.292-1.69-.784-2.343h25.945a2.346 2.346 0 012.343 2.343v31.407H14.281a.781.781 0 00-.781.78 2.346 2.346 0 01-2.344 2.344 2.346 2.346 0 01-2.344-2.343V24.525a.781.781 0 00-1.562 0v12.569A3.91 3.91 0 0011.156 41h.016s0 0 0 0h25.922A3.91 3.91 0 0041 37.094a.781.781 0 00-.781-.782zM7.116 4.124h-4.42a2.348 2.348 0 012.21-1.563c1.019 0 1.888.654 2.21 1.563zm29.978 35.313H14.279a3.89 3.89 0 00.705-1.563h24.32a2.347 2.347 0 01-2.21 1.563z" fill="#152A6B" stroke="#152A6B" stroke-width=".5" />
	<path d="M8.031 21.791a.787.787 0 00.553-.229.787.787 0 00.229-.552.784.784 0 00-1.334-.552.787.787 0 00-.229.552c0 .206.084.407.229.552a.787.787 0 00.552.23zM31.338 16.938H21a.781.781 0 000 1.562h10.338a.781.781 0 100-1.563zM31.338 23.813H21a.781.781 0 000 1.562h10.338a.781.781 0 100-1.563zM13.137 20.375h3.75c.432 0 .782-.35.782-.781v-3.75a.781.781 0 00-.782-.781h-3.75a.781.781 0 00-.781.78v3.75c0 .432.35.782.781.782zm.781-3.75h2.188v2.188h-2.188v-2.188zM12.356 26.469c0 .431.35.781.781.781h3.75c.432 0 .782-.35.782-.781v-3.75a.781.781 0 00-.782-.782h-3.75a.781.781 0 00-.781.782v3.75zm1.563-2.969h2.187v2.188h-2.188V23.5zM12.356 33.344c0 .431.35.781.781.781h3.75c.432 0 .782-.35.782-.781v-3.75a.781.781 0 00-.782-.782h-3.75a.781.781 0 00-.781.782v3.75zm1.563-2.969h2.187v2.188h-2.188v-2.188zM31.338 30.688H21a.781.781 0 000 1.562h10.338a.781.781 0 100-1.563zM24.127 4.125h-3.125a.781.781 0 00-.78.781v1.407h-1.407a.781.781 0 00-.781.78v3.126c0 .431.35.781.78.781h1.407v1.406c0 .432.35.781.781.781h3.125c.432 0 .782-.35.782-.78V11h1.406c.431 0 .781-.35.781-.781V7.094a.781.781 0 00-.781-.782h-1.406V4.907a.781.781 0 00-.782-.781zm1.407 3.75v1.563h-1.407a.781.781 0 00-.78.78v1.407h-1.563v-1.406a.781.781 0 00-.782-.781h-1.406V7.875h1.406c.432 0 .782-.35.782-.781V5.687h1.562v1.407c0 .431.35.781.781.781h1.407z" fill="#152A6B" stroke="#152A6B" stroke-width=".5" />
</svg>
