<svg width="35" height="47" fill="152A6B" xmlns="http://www.w3.org/2000/svg">
	<path d="M31.762 38.969h-2.9v-1.626a6.883 6.883 0 00-1.75-4.585 11.346 11.346 0 003.77-8.467c0-1.521-.296-2.997-.88-4.391a4.384 4.384 0 00-1.378-4.236l.265-.46a2.64 2.64 0 00-.28-3.032l1.073-1.857c.152 0 .304-.02.455-.061a1.745 1.745 0 001.067-.818l1.319-2.284a.879.879 0 00-.322-1.2l-8.373-4.834a.879.879 0 00-1.2.321l-1.319 2.284c-.324.562-.3 1.23.002 1.756l-1.074 1.858a2.634 2.634 0 00-1.163.048 2.618 2.618 0 00-1.602 1.227l-4.834 8.372a2.618 2.618 0 00-.261 2c.103.387.288.737.54 1.032l-.954 1.653c-.234.406-.296.88-.175 1.334.122.454.413.833.818 1.067l5.329 3.076a1.759 1.759 0 002.401-.643l.954-1.653a2.61 2.61 0 001.164-.047 2.618 2.618 0 001.601-1.227l.265-.458c.384.128.791.206 1.214.222a6.108 6.108 0 01-1.735 5.294 6.107 6.107 0 01-4.342 1.81H16.38a.879.879 0 000 1.757h3.076a.88.88 0 010 1.758H5.395a.88.88 0 010-1.758H8.47a.879.879 0 000-1.758H5.395a2.64 2.64 0 00-2.637 2.637 2.64 2.64 0 002.637 2.637h2.222v3.252h-3.98A2.64 2.64 0 001 41.605v3.516c0 .485.394.879.879.879h31.64a.879.879 0 00.88-.879v-3.516a2.64 2.64 0 00-2.637-2.636zm-4.659-1.626v1.626h-1.758v-1.626a3.379 3.379 0 00-1.238-2.615 11.34 11.34 0 001.613-.888 5.13 5.13 0 011.383 3.503zm-7.646-1.626h2.505c.896 0 1.626.73 1.626 1.626v1.626h-6.303v-3.252h2.172zm6.254-14.13a2.64 2.64 0 01-2.636-2.637 2.64 2.64 0 012.636-2.636 2.64 2.64 0 012.637 2.636 2.64 2.64 0 01-2.637 2.637zM21.835 8.086l.879-1.522 5.328 3.076-.879 1.522-5.328-3.076zm1.876-5.007l6.85 3.956-.879 1.522-6.85-3.955.879-1.523zM13.485 22.548l.88-1.522 5.327 3.076-.878 1.522-5.329-3.076zm9.048.15a.872.872 0 01-.534.407.872.872 0 01-.666-.086l-6.85-3.955s0 0 0 0h-.001a.873.873 0 01-.407-.534.872.872 0 01.085-.667l4.834-8.373a.872.872 0 01.535-.407.872.872 0 01.666.086l6.85 3.955a.88.88 0 01.322 1.2l-.265.459a4.373 4.373 0 00-1.39-.227 4.4 4.4 0 00-4.395 4.394c0 1.307.574 2.481 1.482 3.287l-.266.46zm-.745 9.151a7.903 7.903 0 003.255-1.972 7.853 7.853 0 002.226-6.818 4.406 4.406 0 001.585-1.041c.18.74.27 1.5.27 2.273a9.6 9.6 0 01-2.839 6.829 9.642 9.642 0 01-4.245 2.489 2.639 2.639 0 00-.252-1.76zM9.375 35.718h6.152v3.252H9.375v-3.252zm23.266 8.525H2.758v-2.636a.88.88 0 01.879-.88h28.125a.88.88 0 01.879.88v2.636z" fill="#152A6B" stroke="#152A6B" stroke-width=".3" />
	<path d="M13.305 31.322a.879.879 0 00-.88-.878h0a.879.879 0 10.88.878z" fill="#152A6B" stroke="#152A6B" stroke-width=".3" />
</svg>
