<svg width="38" height="42" fill="152A6B" xmlns="http://www.w3.org/2000/svg">
	<path d="M34.194 28.462a11.54 11.54 0 00-7.1-3.651c-.012-.008-3.949-2.245-4.013-2.262v-.667a7.893 7.893 0 003.933-6.823v-3.837a.781.781 0 00.776-.781V9.002C27.79 4.59 24.2 1 19.785 1a4.508 4.508 0 00-3.704 1.94.78.78 0 00-.305-.022 6.069 6.069 0 00-5.316 6.019v1.051c0 .43.346.778.775.781v4.29a7.893 7.893 0 003.933 6.823v.673c-.057.017-3.978 2.246-3.989 2.253a11.54 11.54 0 00-7.129 3.66A11.543 11.543 0 001 36.3v3.913c0 .432.35.782.781.782H15.61a.781.781 0 100-1.563H7.416v-4.285a.781.781 0 00-1.562 0v4.285H2.562V36.3c0-5.095 3.731-9.3 8.738-9.932l4.028 5.35a.78.78 0 001.176.083l2.631-2.63 2.63 2.63a.782.782 0 001.177-.082l4.026-5.348c4.921.639 8.72 4.923 8.72 9.93v3.132h-3.272v-4.285a.781.781 0 00-1.562 0v4.285H22.64a.781.781 0 000 1.563h13.828c.431 0 .781-.35.781-.782V36.3c0-2.913-1.086-5.696-3.056-7.838zM12.797 15.06v-4.29h2.85a4.39 4.39 0 002.118-.545 5.679 5.679 0 003.22.998h4.465v3.837c0 .11-.003.221-.008.33a.775.775 0 00-.275-.051 3.483 3.483 0 01-2.46-1.026 5.073 5.073 0 00-7.166 0 3.483 3.483 0 01-2.46 1.026c-.097 0-.19.019-.275.052a6.373 6.373 0 01-.008-.331zm6.327 6.318a5.266 5.266 0 01-5.21-4.548 5.033 5.033 0 002.732-1.413 3.508 3.508 0 014.956 0 5.033 5.033 0 002.732 1.413 5.266 5.266 0 01-5.21 4.548zm.661-18.814c3.552 0 6.441 2.889 6.441 6.44v.656h-5.24a4.153 4.153 0 01-4.149-4.148 2.952 2.952 0 012.948-2.949zm-7.763 6.374a4.507 4.507 0 013.349-4.353c-.063.299-.096.609-.096.927 0 1.344.467 2.58 1.247 3.556-.281.092-.577.14-.876.14h-3.624v-.27zm7.102 14.01a7.86 7.86 0 002.393-.37v1.197l-2.383 3.028-2.403-3.054v-1.172a7.86 7.86 0 002.393.372zm-3.09 7.113l-3.278-4.355 2.434-1.388 2.901 3.686-2.057 2.056zm6.2 0l-2.057-2.057 2.901-3.686 2.434 1.388-3.278 4.355z" fill="#152A6B" stroke="#152A6B" stroke-width=".5" />
	<path d="M19.125 39.438a.787.787 0 00-.552.228.787.787 0 00-.23.553.787.787 0 00.781.781.787.787 0 00.553-.229.787.787 0 00.23-.552.787.787 0 00-.23-.553.787.787 0 00-.552-.228z" fill="#152A6B" stroke="#152A6B" stroke-width=".5" />
</svg>
