<svg width="42" height="42" fill="152A6B" xmlns="http://www.w3.org/2000/svg">
	<path d="M40.698 5.436a.781.781 0 00-.672-.14l-3.717.944a7.426 7.426 0 01-1.827.229h-5.455a3.535 3.535 0 00-3.514 3.019 1.981 1.981 0 01-1.97 1.692h-.2V9.548a4.598 4.598 0 002.253-3.952A4.601 4.601 0 0021 1a4.601 4.601 0 00-4.596 4.596c0 1.679.905 3.15 2.252 3.952v1.632h-.2c-.991 0-1.82-.712-1.97-1.692a3.535 3.535 0 00-3.514-3.02H7.519c-.616 0-1.23-.076-1.827-.228l-3.717-.945A.782.782 0 001 6.052a6.29 6.29 0 001.675 4.278 6.047 6.047 0 002.309 4.68l.735.982a8.963 8.963 0 007.144 3.577c2.145 0 4.179-.754 5.793-2.136v2.786h-.7a5.058 5.058 0 00-5.053 5.052c0 .851.216 1.693.625 2.435a.781.781 0 101.368-.754 3.493 3.493 0 013.06-5.17h.7v6.978H16.82a3.741 3.741 0 00-3.737 3.738 3.741 3.741 0 003.737 3.736h2.172a20.21 20.21 0 001.3 4.292.781.781 0 00.718.474h.001a.781.781 0 00.718-.476l.015-.037a20.206 20.206 0 001.272-4.253h.888c.883 0 1.601.719 1.601 1.602 0 .883-.718 1.602-1.601 1.602h-.053a.781.781 0 000 1.562h.053a3.168 3.168 0 003.164-3.164 3.168 3.168 0 00-3.164-3.164h-.666c.07-.686.106-1.377.106-2.073v-2.276h.52a5.058 5.058 0 005.052-5.052 5.058 5.058 0 00-5.052-5.052h-.52v-2.786a8.861 8.861 0 005.793 2.136 8.964 8.964 0 007.144-3.577l.735-.982a6.047 6.047 0 002.309-4.68A6.29 6.29 0 0041 6.052a.782.782 0 00-.302-.616zM18.038 15.88a7.315 7.315 0 01-5.175 2.127 7.395 7.395 0 01-4.73-1.724c.197.02.395.03.596.03h1.309a.781.781 0 000-1.563H8.729a4.5 4.5 0 01-4.258-3.063c.855.434 1.82.68 2.843.68H8.93a.781.781 0 000-1.562H7.314a4.76 4.76 0 01-4.638-3.72l2.63.67a8.981 8.981 0 002.212.276h5.455c.991 0 1.82.712 1.97 1.692a3.535 3.535 0 003.514 3.02h.2v2.525l-.62.612zM16.82 34.672a2.177 2.177 0 01-2.174-2.175c0-1.199.975-2.174 2.174-2.174h1.836v2.23c0 .711.038 1.418.11 2.119H16.82zm4.961-2.073c0 1.819-.26 3.604-.774 5.33a18.588 18.588 0 01-.788-5.377v-2.23h1.562V32.6zm0-3.839H20.22V10.125a4.592 4.592 0 001.562 0V28.76zm2.084-6.979a3.493 3.493 0 013.489 3.49 3.493 3.493 0 01-3.49 3.49h-.52v-6.98h.52zM21 8.63a3.037 3.037 0 01-3.034-3.034A3.037 3.037 0 0121 2.562a3.037 3.037 0 013.034 3.034A3.037 3.037 0 0121 8.63zm13.686 2.174H33.07a.781.781 0 000 1.563h1.616a6.272 6.272 0 002.843-.68 4.5 4.5 0 01-4.258 3.063h-1.309a.781.781 0 000 1.563h1.309c.2 0 .4-.01.595-.03a7.395 7.395 0 01-4.729 1.724 7.315 7.315 0 01-5.175-2.127l-.618-.612v-2.526h.2c1.769 0 3.247-1.27 3.514-3.019.15-.98.978-1.692 1.97-1.692h5.454c.745 0 1.49-.093 2.212-.277l2.63-.668a4.76 4.76 0 01-4.638 3.718zM18.427 39.666a.786.786 0 00-.553-.229.787.787 0 00-.552.23.787.787 0 00-.229.552c0 .205.084.407.229.552a.787.787 0 00.552.229.786.786 0 00.553-.23.787.787 0 00.229-.551.787.787 0 00-.23-.553z" fill="#152A6B" stroke="#152A6B" stroke-width=".5" />
</svg>
