<svg width="42" height="42" fill="152A6B" xmlns="http://www.w3.org/2000/svg">
	<path d="M38.07 13.394h-2.654a.586.586 0 100 1.172h2.654c.97 0 1.758.788 1.758 1.758v23.465a.04.04 0 01-.039.04h-6.522v-2.345h2.993c.665 0 1.208-.54 1.211-1.205l.013-2.885a1.22 1.22 0 00-1.21-1.217h-3.007v-2.31h2.993c.665 0 1.208-.54 1.211-1.205l.013-2.885a1.22 1.22 0 00-1.21-1.216h-3.007v-2.344h2.993c.665 0 1.208-.541 1.211-1.206l.013-2.885a1.22 1.22 0 00-1.21-1.216h-3.007v-6.066a2.933 2.933 0 00-2.93-2.93h-1.86C28.177 4.051 24.938 1 21 1s-7.177 3.051-7.477 6.914h-1.898a2.933 2.933 0 00-2.93 2.93v2.55H3.93A2.933 2.933 0 001 16.324v23.465C1 40.457 1.543 41 2.21 41h37.58c.667 0 1.21-.543 1.21-1.21V16.323a2.933 2.933 0 00-2.93-2.93zm-4.803 4.688h3.006c.004 0 .017 0 .028.011a.037.037 0 01.011.028l-.012 2.885a.04.04 0 01-.04.039h-2.993v-2.963zm0 7.65h3.006c.004 0 .017 0 .028.012.011.011.011.024.011.028l-.012 2.885a.04.04 0 01-.04.039h-2.993v-2.964zm0 7.617h3.006c.004 0 .017 0 .028.012.011.011.011.024.011.027l-.012 2.886a.04.04 0 01-.04.038h-2.993V33.35zM8.695 36.313H5.74a.039.039 0 01-.04-.04l-.013-2.884c0-.004 0-.017.012-.028.011-.012.024-.012.028-.012h2.968v2.964zm0-7.618H5.74a.039.039 0 01-.04-.038l-.013-2.885c0-.005 0-.017.012-.028.012-.012.024-.012.028-.012h2.968v2.963zm0-7.65H5.74a.039.039 0 01-.04-.04l-.013-2.884c0-.004 0-.016.012-.028s.024-.012.028-.012h2.968v2.963zm0-4.136H5.727a1.219 1.219 0 00-1.211 1.217l.013 2.885a1.213 1.213 0 001.21 1.205h2.956v2.344H5.727a1.219 1.219 0 00-1.211 1.217l.013 2.885a1.213 1.213 0 001.21 1.205h2.956v2.31H5.727a1.218 1.218 0 00-1.211 1.217l.013 2.885a1.213 1.213 0 001.21 1.205h2.956v2.344H2.211a.04.04 0 01-.04-.039V16.324c0-.97.79-1.758 1.759-1.758h4.765v2.343zM21 2.172A6.335 6.335 0 0127.328 8.5 6.335 6.335 0 0121 14.828 6.335 6.335 0 0114.672 8.5 6.335 6.335 0 0121 2.172zm5.236 37.656h-4.65V29.51h4.65v10.318zm-11.644-11.49v-1.172h12.816v1.172H14.592zm17.503 11.49h-4.687V29.51c.612.035 1.176-.412 1.172-1.055V27.05c0-.582-.473-1.055-1.055-1.055h-13.05c-.582 0-1.055.473-1.055 1.055v1.406a1.07 1.07 0 001.172 1.055v4.149a.586.586 0 101.172 0v-4.15h4.65v10.32h-4.65v-3.436a.586.586 0 00-1.172 0v3.435H9.867V10.844c0-.97.789-1.758 1.758-1.758h1.898C13.823 12.949 17.062 16 21 16s7.177-3.051 7.477-6.914h1.86c.97 0 1.758.788 1.758 1.758v28.984zm-12.853-29.57v2.344c0 .581.473 1.054 1.055 1.054h1.406c.582 0 1.055-.473 1.055-1.054v-2.344h2.344c.581 0 1.054-.473 1.054-1.055V7.797c0-.582-.473-1.055-1.054-1.055h-2.344V4.398c0-.581-.473-1.054-1.055-1.054h-1.406c-.582 0-1.055.473-1.055 1.054v2.344h-2.344c-.581 0-1.054.473-1.054 1.055v1.406c0 .582.473 1.055 1.054 1.055h2.344zm-2.226-2.344h2.578c.452 0 .82-.368.82-.82V4.516h1.172v2.578c0 .452.368.82.82.82h2.578v1.172h-2.578a.821.821 0 00-.82.82v2.578h-1.172V9.906a.821.821 0 00-.82-.82h-2.578V7.914zm1.64 27.94a.586.586 0 00.586-.585v-1.2a.586.586 0 00-1.172 0v1.2c0 .323.263.586.586.586zm-.039-17.51h-5.18c-.664 0-1.207.54-1.21 1.205l-.013 2.885a1.22 1.22 0 001.21 1.217h5.193c.668 0 1.211-.543 1.211-1.211v-2.885c0-.668-.543-1.211-1.21-1.211zm.04 4.096c0 .021-.018.039-.04.039h-5.192c-.016.002-.042-.024-.04-.04l.014-2.884a.04.04 0 01.039-.04h5.18c.02 0 .038.018.038.04v2.885zm4.687 13.415a.586.586 0 00.586-.586v-1.2a.586.586 0 00-1.172 0v1.2c0 .323.262.586.586.586zm5.213-17.511h-5.174c-.668 0-1.211.543-1.211 1.21v2.886c0 .668.543 1.21 1.21 1.21h5.161c.665 0 1.208-.54 1.211-1.205l.013-2.885a1.22 1.22 0 00-1.21-1.216zm.026 4.096a.04.04 0 01-.04.039h-5.16a.039.039 0 01-.04-.04v-2.884c0-.022.018-.04.04-.04h5.174c.004 0 .016 0 .027.012.012.012.012.024.012.028l-.014 2.885z" fill="#152A6B" stroke="#152A6B" stroke-width=".5" />
</svg>
