<svg width="42" height="42" fill="152A6B" xmlns="http://www.w3.org/2000/svg">
	<path d="M10.785 17.875h-5a.781.781 0 00-.781.781v5c0 .432.35.782.781.782h5c.432 0 .781-.35.781-.782v-5a.781.781 0 00-.78-.781zm-.781 5H6.566v-3.438h3.438v3.438zM19.262 17.875h-5a.781.781 0 00-.782.781v5c0 .432.35.782.782.782h5c.431 0 .781-.35.781-.782v-5a.781.781 0 00-.781-.781zm-.782 5h-3.437v-3.438h3.438v3.438zM27.738 17.875h-5a.781.781 0 00-.781.781v5c0 .432.35.782.781.782h5c.432 0 .782-.35.782-.782v-5a.781.781 0 00-.782-.781zm-.781 5h-3.438v-3.438h3.438v3.438zM36.215 17.875h-5a.781.781 0 00-.781.781v5c0 .432.35.782.78.782h5c.432 0 .782-.35.782-.782v-5a.781.781 0 00-.781-.781zm-.781 5h-3.438v-3.438h3.438v3.438zM10.785 26.313h-5a.781.781 0 00-.781.78v5c0 .432.35.782.781.782h5c.432 0 .781-.35.781-.781v-5a.781.781 0 00-.78-.782zm-.781 5H6.566v-3.438h3.438v3.438zM19.262 26.313h-5a.781.781 0 00-.782.78v5c0 .432.35.782.782.782h5c.431 0 .781-.35.781-.781v-5a.781.781 0 00-.781-.782zm-.782 5h-3.437v-3.438h3.438v3.438zM27.738 26.313h-5a.781.781 0 00-.781.78v5c0 .432.35.782.781.782h5c.432 0 .782-.35.782-.781v-5a.781.781 0 00-.782-.782zm-.781 5h-3.438v-3.438h3.438v3.438zM36.215 26.313h-5a.781.781 0 00-.781.78v5c0 .432.35.782.78.782h5c.432 0 .782-.35.782-.781v-5a.781.781 0 00-.781-.782zm-.781 5h-3.438v-3.438h3.438v3.438z" fill="#152A6B" stroke="#152A6B" stroke-width=".5" />
	<path d="M37.094 4.125H33.5V3.5C33.5 2.121 32.379 1 31 1a2.503 2.503 0 00-2.5 2.5v.625h-15V3.5C13.5 2.121 12.379 1 11 1a2.503 2.503 0 00-2.5 2.5v.625H4.906A3.91 3.91 0 001 8.031v27.5c0 1.019.653 1.887 1.563 2.21v.915A2.346 2.346 0 004.905 41h32.188a2.346 2.346 0 002.343-2.344v-.915A2.347 2.347 0 0041 35.53v-27.5a3.91 3.91 0 00-3.906-3.906zM30.062 3.5a.939.939 0 011.875 0v2.813a.939.939 0 01-1.875 0V3.5zm-20 0a.939.939 0 011.876 0v2.813a.939.939 0 01-1.876 0V3.5zm27.813 35.156c0 .431-.35.782-.781.782H4.906a.782.782 0 01-.781-.782v-.781h33.75v.781zm.781-2.343H3.344a.782.782 0 01-.781-.782V14.438h14.942a.781.781 0 000-1.563H2.563V8.031a2.346 2.346 0 012.343-2.344H8.5v.625c0 1.379 1.121 2.5 2.5 2.5s2.5-1.121 2.5-2.5v-.625h15v.625c0 1.379 1.122 2.5 2.5 2.5 1.379 0 2.5-1.121 2.5-2.5v-.625h3.594a2.346 2.346 0 012.343 2.344v4.844h-14.9a.781.781 0 000 1.563h14.9V35.53c0 .431-.35.782-.78.782z" fill="#152A6B" stroke="#152A6B" stroke-width=".5" />
	<path d="M21.02 12.885a.787.787 0 00-.552.23.787.787 0 00-.229.551.79.79 0 00.229.553.786.786 0 001.105 0 .788.788 0 00.229-.553.787.787 0 00-.23-.552.787.787 0 00-.552-.229z" fill="#152A6B" stroke="#152A6B" stroke-width=".5" />
</svg>
