<svg width="42" height="42" fill="152A6B" xmlns="http://www.w3.org/2000/svg">
	<path d="M25.342 31.997a3.466 3.466 0 00-2.408-1.196 3.474 3.474 0 00-2.407.752 18.499 18.499 0 00-3.978-3.024l.392-2.656 3.05.45a3.407 3.407 0 002.546-.64 3.407 3.407 0 001.348-2.252l.266-1.802.223.032a1.537 1.537 0 001.486-.635 1.536 1.536 0 00.104-1.613l-1.531-2.897.12-.343c.72-2.036.76-4.258.122-6.314a4.6 4.6 0 001.448-2.735 4.605 4.605 0 00-.865-3.441 4.605 4.605 0 00-3.044-1.822l-5.01-.74a11.34 11.34 0 00-8.88 2.485.781.781 0 10.996 1.203 9.776 9.776 0 017.655-2.142l5.01.74c.813.12 1.53.548 2.019 1.207.49.66.693 1.47.573 2.281a3.053 3.053 0 01-1.208 2.019c-.659.49-1.469.692-2.28.573l-1-.148a7.645 7.645 0 00-7.012 2.725l-.699.858c-1.397.048-2.634 1.218-2.87 2.81-.214 1.451.473 2.81 1.601 3.377a2.927 2.927 0 01-2.183.628l-.442-.478a10.09 10.09 0 01-2.481-8.957.781.781 0 00-1.53-.322 11.646 11.646 0 002.863 10.34l.379.41-.956 6.624C3.38 28.776 1 32.122 1 36.013v4.206a.781.781 0 001.563 0v-4.206c0-4.316 3.51-7.827 7.826-7.827.856 0 1.701.14 2.512.415.79.267 1.556.594 2.294.974.082.068.178.12.285.15a16.94 16.94 0 014.07 3.059 3.508 3.508 0 00.375 3.634c1.295 1.69 2.143 3.087 2.452 4.04a.782.782 0 001.486-.48c-.367-1.137-1.275-2.655-2.698-4.51a1.94 1.94 0 01.254-2.624 1.92 1.92 0 011.412-.484c.519.034.991.269 1.33.66 1.553 1.79 3.506 4.514 4.001 7.328a.782.782 0 001.54-.27c-.558-3.166-2.678-6.142-4.36-8.081zM10.39 26.624c-.678 0-1.339.073-1.976.21l.795-5.513h.062a4.503 4.503 0 003.908-2.28.781.781 0 00-.567-1.155l-.48-.071c-.729-.108-1.212-.94-1.076-1.856.135-.915.837-1.572 1.566-1.465a.78.78 0 00.72-.28l.948-1.164a6.075 6.075 0 015.573-2.165l.998.148a4.61 4.61 0 002.438-.297 8.488 8.488 0 01-.218 4.917l-.235.666a.782.782 0 00.046.625l1.674 3.166-.959-.141a.781.781 0 00-.887.659l-.073.494a1.36 1.36 0 00-1.126.684 1.363 1.363 0 00.115 1.538l.448.563a1.87 1.87 0 01-1.864.87l-3.823-.564a.78.78 0 00-.887.659l-.43 2.911a18.361 18.361 0 00-1.676-.662 9.368 9.368 0 00-3.014-.497z" fill="#152A6B" stroke="#152A6B" stroke-width=".7" />
	<path d="M6.526 7.651a.789.789 0 00.553-.229.786.786 0 000-1.105.787.787 0 00-.553-.228.787.787 0 00-.552.228.787.787 0 00-.23.553.787.787 0 00.781.781zM38.173 20.267a3.574 3.574 0 00-3.219-2.006 3.61 3.61 0 00-3.494 2.79l-4.777 1.999a.781.781 0 000 1.441l4.777 2a3.61 3.61 0 003.494 2.79 3.574 3.574 0 003.219-2.007 3.598 3.598 0 002.83-3.503 3.597 3.597 0 00-2.83-3.504zm-.61 5.52a.781.781 0 00-.687.537 2.016 2.016 0 01-1.922 1.394 2.032 2.032 0 01-2.013-1.847.781.781 0 00-.477-.654l-3.456-1.446 3.456-1.446a.781.781 0 00.477-.655 2.032 2.032 0 012.013-1.846c.877 0 1.65.56 1.922 1.394.098.302.37.515.688.537a2.026 2.026 0 011.876 2.016 2.027 2.027 0 01-1.877 2.015z" fill="#152A6B" stroke="#152A6B" stroke-width=".7" />
</svg>
