<svg width="42" height="42" fill="152A6B" xmlns="http://www.w3.org/2000/svg">
	<path d="M12.676 7.397l-.506 1.069 1.166.552.506-1.069-1.166-.552zM11.634 9.595L4.51 24.635a9.716 9.716 0 00-.93 4.132h1.291c0-1.23.279-2.468.805-3.58l7.125-15.04-1.167-.552z" fill="#152A6B" stroke="#152A6B" stroke-width=".5" />
	<path d="M27.452 13.903c-2.48 0-4.797.68-6.799 1.848L13.841 1.369a.646.646 0 00-1.166 0L2.177 23.53A12.306 12.306 0 001 28.767C1 35.512 6.488 41 13.283 41c2.48 0 4.862-.74 6.899-2.134A13.457 13.457 0 0027.452 41C34.922 41 41 34.922 41 27.452s-6.077-13.549-13.548-13.549zM13.232 39.71C7.2 39.71 2.29 34.8 2.29 28.767c0-1.61.364-3.23 1.054-4.685l9.914-20.93 6.304 13.308c-3.42 2.461-5.659 6.466-5.659 10.992 0 4.296 2.017 8.125 5.147 10.609a10.924 10.924 0 01-5.817 1.649zm14.22 0c-6.76 0-12.259-5.499-12.259-12.258 0-6.76 5.5-12.259 12.259-12.259s12.258 5.5 12.258 12.259S34.21 39.71 27.452 39.71z" fill="#152A6B" stroke="#152A6B" stroke-width=".5" />
	<path d="M27.452 17.129c-3.202 0-5.807 2.026-5.807 4.516s2.605 4.516 5.807 4.516c3.201 0 5.806-2.026 5.806-4.516s-2.605-4.516-5.806-4.516zm0 7.742c-2.49 0-4.516-1.447-4.516-3.226s2.025-3.226 4.516-3.226c2.49 0 4.516 1.447 4.516 3.226s-2.026 3.226-4.516 3.226z" fill="#152A6B" stroke="#152A6B" stroke-width=".5" />
	<path d="M29.18 20.074a5.488 5.488 0 01-3.457 0l-.415 1.223a6.672 6.672 0 002.144.348c.739 0 1.46-.117 2.142-.348l-.415-1.223zM33.599 29.012a5.348 5.348 0 01-1.16 1.313c-.463.38-.973.676-1.513.878l.453 1.209a6.632 6.632 0 001.879-1.09 6.643 6.643 0 001.436-1.628l-1.095-.682z" fill="#152A6B" stroke="#152A6B" stroke-width=".5" />
	<path d="M37.614 27.595c-.622-.802-1.565-1.304-2.653-1.411-1.508-.154-3.143.435-4.49 1.602-2.376 2.058-3.08 5.317-1.569 7.264.623.802 1.565 1.304 2.654 1.411.154.016.31.023.467.023 1.371 0 2.814-.578 4.023-1.626 2.375-2.058 3.08-5.317 1.568-7.263zm-2.413 6.288c-1.065.923-2.38 1.405-3.518 1.294-.743-.072-1.352-.39-1.761-.918-1.097-1.414-.472-3.88 1.394-5.497.963-.835 2.13-1.31 3.187-1.31.112 0 .222.005.33.016.743.073 1.352.39 1.761.918 1.098 1.415.473 3.88-1.393 5.497zM22.463 30.325a5.343 5.343 0 01-1.158-1.313l-1.095.682c.38.611.863 1.159 1.435 1.629.573.47 1.205.836 1.879 1.089l.453-1.209a5.339 5.339 0 01-1.514-.878z" fill="#152A6B" stroke="#152A6B" stroke-width=".5" />
	<path d="M24.433 27.787c-1.348-1.168-2.986-1.757-4.49-1.602-1.089.107-2.03.608-2.654 1.41-1.51 1.948-.807 5.206 1.568 7.264 1.21 1.048 2.652 1.627 4.024 1.627.156 0 .313-.008.467-.023 1.088-.108 2.03-.609 2.653-1.411 1.511-1.948.807-5.207-1.568-7.265zm.549 6.472c-.41.527-1.018.846-1.76.918-1.143.11-2.455-.37-3.52-1.294-1.866-1.617-2.49-4.082-1.393-5.497.41-.527 1.018-.845 1.76-.918.11-.01.22-.016.331-.016 1.057 0 2.225.475 3.188 1.31 1.866 1.617 2.491 4.082 1.394 5.497z" fill="#152A6B" stroke="#152A6B" stroke-width=".5" />
</svg>
