<svg width="42" height="28" fill="152A6B" xmlns="http://www.w3.org/2000/svg">
	<path d="M36.833 1H5.167A4.172 4.172 0 001 5.167V23.5a4.172 4.172 0 004.167 4.167h31.666A4.172 4.172 0 0041 23.5V5.167A4.172 4.172 0 0036.833 1zm2.5 22.5c0 1.378-1.121 2.5-2.5 2.5H5.167a2.503 2.503 0 01-2.5-2.5V5.167c0-1.379 1.121-2.5 2.5-2.5h31.666c1.379 0 2.5 1.121 2.5 2.5V23.5h0z" fill="#152A6B" stroke="#152A6B" stroke-width=".5" />
	<path d="M37.52 4.697a.834.834 0 00-1.158-.217l-13.669 9.352a2.984 2.984 0 01-3.388 0L5.637 4.48a.831.831 0 00-1.159.217.835.835 0 00.219 1.158l13.668 9.352c.8.548 1.719.821 2.635.821.917 0 1.835-.273 2.635-.821l13.668-9.352a.833.833 0 00.217-1.158zM15.807 14.632a.838.838 0 00-1.175-.107l-10 8.333A.835.835 0 005.7 24.14l10-8.333a.835.835 0 00.107-1.175zM37.368 22.858l-10-8.333a.835.835 0 00-1.068 1.282l10 8.333a.831.831 0 001.175-.107.835.835 0 00-.107-1.175z" fill="#152A6B" stroke="#152A6B" stroke-width=".5" />
</svg>
