<svg width="34" height="47" fill="152A6B" xmlns="http://www.w3.org/2000/svg">
	<path d="M33.171 14.449a.88.88 0 00-.63-.267h-1.044l.366-9.859a2.411 2.411 0 00-.647-1.74 2.41 2.41 0 00-1.688-.774l-21.78-.807a2.428 2.428 0 00-2.514 2.334l-.072 1.952H3.475A2.478 2.478 0 001 7.763v31.404a2.48 2.48 0 001.846 2.394v3.56a.879.879 0 001.307.768l2.285-1.274 2.284 1.274a.878.878 0 001.307-.768v-3.479h15.113a2.477 2.477 0 002.475-2.475V38.8l.54.02.09.002a2.43 2.43 0 002.423-2.336l.61-16.454h1.134a.88.88 0 00.878-.852l.127-4.091a.88.88 0 00-.248-.64zm-24.9 29.176l-1.406-.784a.879.879 0 00-.855 0l-1.406.784v-1.983H8.27v1.983zM24.873 5.288h-4.627a.879.879 0 000 1.758h4.627c.544 0 .986.442.986.985v31.136a.718.718 0 01-.717.717H3.475a.718.718 0 01-.717-.717V7.763c0-.396.321-.717.717-.717h9.69a.879.879 0 100-1.758H6.921l.07-1.886a.668.668 0 01.693-.644l21.779.808a.664.664 0 01.643.692l-.368 9.924h-2.121v-6.15a2.747 2.747 0 00-2.744-2.744zm4.04 31.131a.668.668 0 01-.692.644l-.604-.023V20.03h1.904l-.607 16.39zm2.649-18.146h-3.945v-2.334h4.017l-.072 2.334z" fill="#152A6B" stroke="#152A6B" stroke-width=".3" />
	<path d="M14.308 10.578c-5.07 0-9.194 4.124-9.194 9.194 0 5.07 4.124 9.195 9.194 9.195 5.07 0 9.195-4.125 9.195-9.195s-4.125-9.194-9.195-9.194zm6.663 5.897a23.453 23.453 0 00-2.56-.601 23.523 23.523 0 00-.599-2.66 7.487 7.487 0 013.16 3.26zm-8.086-4.001a7.437 7.437 0 012.847 0 21.69 21.69 0 01.85 3.151 23.682 23.682 0 00-4.548 0c.203-1.066.487-2.12.85-3.151zm-2.081.74c-.252.877-.451 1.764-.599 2.66-.862.151-1.716.352-2.56.6a7.488 7.488 0 013.159-3.26zM6.87 19.773c0-.42.037-.831.104-1.233.982-.35 1.986-.628 3-.833a23.679 23.679 0 000 4.036 21.658 21.658 0 01-3.018-.84 7.458 7.458 0 01-.086-1.13zm.718 3.185c.862.256 1.735.462 2.617.618.154.933.364 1.859.63 2.771a7.485 7.485 0 01-3.247-3.389zm8.106 4.12c-.45.085-.913.132-1.387.132s-.937-.046-1.387-.132a21.682 21.682 0 01-.886-3.254 23.688 23.688 0 004.547 0 21.682 21.682 0 01-.887 3.254zm1.153-5.05a21.917 21.917 0 01-5.08 0 21.911 21.911 0 010-4.606 21.917 21.917 0 015.08 0c.162 1.53.162 3.076 0 4.606zm.932 4.32c.267-.913.477-1.84.63-2.773a23.478 23.478 0 002.617-.617 7.485 7.485 0 01-3.247 3.39zm3.804-5.418c-.964.342-1.948.612-2.943.813a23.688 23.688 0 000-4.036c.995.201 1.979.471 2.943.813l.057.02a7.449 7.449 0 01.018 2.363l-.075.027zM17.41 5.666l-.029-.038a.879.879 0 10-1.388 1.078l.029.037a.877.877 0 001.572-.576.874.874 0 00-.184-.501zM8.796 33.287c-.26-.229-.605-.344-1.028-.344H6.62a.422.422 0 00-.29.101.34.34 0 00-.122.259v3.71c0 .12.062.22.175.286.092.053.202.08.328.08.122 0 .231-.026.325-.08a.323.323 0 00.178-.285V35.82h.508c.433 0 .79-.116 1.058-.346.276-.234.415-.598.415-1.082v-.034c0-.48-.134-.84-.399-1.072zM8.19 34.45c0 .181-.04.316-.12.4-.08.084-.193.125-.347.125h-.508v-1.118h.508c.154 0 .267.04.347.125.08.084.12.219.12.4v.068zM13.926 36.844l-1.1-3.589a.425.425 0 00-.242-.268.839.839 0 00-.365-.079.884.884 0 00-.359.07.406.406 0 00-.24.25l-1.104 3.59-.002.01a.414.414 0 00-.015.09c0 .1.041.24.237.35a.855.855 0 00.42.111c.278 0 .376-.13.41-.244l.186-.663h1.024l.189.661c.025.092.107.246.379.246.13 0 .258-.036.38-.11.182-.106.22-.238.22-.33a.397.397 0 00-.018-.095zm-1.937-1.218l.318-1.135.321 1.135h-.639zM18.457 35.408a1.199 1.199 0 00-.383-.445 3.891 3.891 0 00-.455-.263 5.313 5.313 0 00-.45-.199.947.947 0 01-.3-.175.244.244 0 01-.092-.19.24.24 0 01.111-.214c.09-.062.225-.093.402-.093.166 0 .318.032.451.095.236.112.296.121.337.121a.37.37 0 00.33-.2.65.65 0 00.098-.33.433.433 0 00-.163-.335.873.873 0 00-.356-.174 3.043 3.043 0 00-.367-.07c-.322-.04-.6-.024-.86.043a1.677 1.677 0 00-.477.208 1.067 1.067 0 00-.375.415 1.287 1.287 0 00-.137.603c0 .201.038.384.112.544.075.16.176.292.3.39.115.09.243.173.38.244.135.07.27.134.401.19.125.054.241.11.346.166a.67.67 0 01.22.186c.05.067.073.14.073.227 0 .12-.04.203-.125.262a.663.663 0 01-.382.102.787.787 0 01-.314-.06.717.717 0 01-.214-.13 2.097 2.097 0 00-.195-.169.412.412 0 00-.248-.097c-.087 0-.216.032-.331.187a.575.575 0 00-.126.344c0 .225.153.427.454.6.278.159.613.24.997.24.437 0 .797-.118 1.07-.35.279-.237.42-.575.42-1.004a1.42 1.42 0 00-.152-.67zM23.15 35.408a1.199 1.199 0 00-.383-.445 3.891 3.891 0 00-.455-.263 5.313 5.313 0 00-.451-.199.947.947 0 01-.299-.175.244.244 0 01-.093-.19.24.24 0 01.112-.214c.09-.062.224-.093.401-.093.166 0 .318.032.452.095.235.112.295.121.336.121a.37.37 0 00.33-.2.65.65 0 00.099-.33.433.433 0 00-.164-.335.874.874 0 00-.355-.174 3.043 3.043 0 00-.368-.07c-.322-.04-.6-.024-.86.043a1.677 1.677 0 00-.477.208 1.067 1.067 0 00-.374.415 1.287 1.287 0 00-.138.603c0 .201.038.384.112.544.076.16.177.292.3.39.116.09.244.173.381.244.134.07.27.134.4.19.126.054.242.11.346.166a.67.67 0 01.22.186c.05.067.074.14.074.227 0 .12-.04.203-.126.262a.663.663 0 01-.382.102.787.787 0 01-.313-.06.717.717 0 01-.214-.13 2.097 2.097 0 00-.195-.169.412.412 0 00-.248-.097c-.088 0-.216.032-.332.187a.575.575 0 00-.126.344c0 .225.153.427.455.6.278.159.613.24.996.24.438 0 .797-.118 1.07-.35.279-.237.42-.575.42-1.004a1.42 1.42 0 00-.152-.67z" fill="#152A6B" stroke="#152A6B" stroke-width=".3" />
</svg>
