<svg width="41" height="42" fill="152A6B" xmlns="http://www.w3.org/2000/svg">
	<path d="M16.983 39.437h-.015a.781.781 0 100 1.563h.015a.782.782 0 000-1.563zM13.204 19.437c0 .432.35.782.782.782l10.971.005h0a.782.782 0 000-1.564l-10.97-.004a.783.783 0 00-.783.781z" fill="#152A6B" stroke="#152A6B" stroke-width=".5" />
	<path d="M38.515 5.903c-1.46-.731-3.44-.473-4.395 1.435L32.938 9.7V7.805a.778.778 0 00-.21-.531l-.005-.007-5.711-6.023A.791.791 0 0026.44 1H4.03A3.035 3.035 0 001 4.032v33.934A3.036 3.036 0 004.03 41h9.825a.782.782 0 000-1.563H4.031c-.81 0-1.468-.66-1.468-1.47V4.031c0-.81.659-1.469 1.468-1.469h21.632v3.143a2.884 2.884 0 002.88 2.88h2.832v4.236l-6.315 12.61a.769.769 0 00-.103-.008l-10.972.002a.781.781 0 000 1.563l10.67-.002-.42 5.207-10.25.003a.782.782 0 000 1.564h.001l10.97-.005h0c.187 0 .372-.066.518-.195l5.014-4.416a.778.778 0 00.181-.236h0l.005-.007.002-.006.699-1.394v10.464c0 .81-.659 1.47-1.468 1.47h-9.825a.781.781 0 100 1.564h9.825a3.036 3.036 0 003.03-3.034V24.38L40 10.283c.955-1.909-.024-3.648-1.484-4.38zm-9.972 1.12a1.32 1.32 0 01-1.317-1.317V3.742l3.112 3.282h-1.795zm-2.652 24.088l.288-3.579 2.406 1.206-2.694 2.373zm12.71-21.528L29.622 27.51l-3.08-1.545 6.301-12.585.001-.003 2.674-5.34c.596-1.19 1.725-1.023 2.297-.736.573.287 1.383 1.09.786 2.282z" fill="#152A6B" stroke="#152A6B" stroke-width=".5" />
	<path d="M11.062 23.491a.782.782 0 00-1.09.183l-2.294 3.217-.63-.558a.782.782 0 00-1.036 1.17l1.28 1.134a.78.78 0 001.154-.131l2.798-3.924a.782.782 0 00-.182-1.09zM11.061 29.606a.781.781 0 00-1.09.182l-2.293 3.219-.629-.559a.782.782 0 00-1.038 1.169l1.28 1.136a.783.783 0 001.155-.13l2.798-3.927a.781.781 0 00-.183-1.09zM6.011 21.386l1.28 1.136a.783.783 0 001.155-.13l2.798-3.927a.781.781 0 10-1.273-.907l-2.293 3.218-.63-.558a.782.782 0 10-1.037 1.168zM17.769 4.962h-1.572c-.931 0-1.689.758-1.689 1.69v.88h-.88c-.931 0-1.688.758-1.688 1.688v1.572c0 .932.757 1.69 1.687 1.69h.88v.881c0 .932.759 1.69 1.69 1.69h1.572c.931 0 1.69-.758 1.69-1.69v-.881h.88c.932 0 1.69-.758 1.69-1.69V9.22a1.69 1.69 0 00-1.69-1.687h-.88V6.65c0-.931-.759-1.69-1.69-1.69zm2.57 4.134c.067 0 .126.058.126.124v1.572a.13.13 0 01-.126.127h-1.662a.782.782 0 00-.782.781v1.663a.128.128 0 01-.126.127h-1.572a.13.13 0 01-.126-.127V11.7a.782.782 0 00-.781-.781h-1.663a.126.126 0 01-.123-.127V9.22c0-.066.057-.124.123-.124h1.663c.431 0 .781-.35.781-.782V6.651a.13.13 0 01.126-.126h1.572c.068 0 .126.058.126.126v1.663c0 .432.35.782.782.782h1.662z" fill="#152A6B" stroke="#152A6B" stroke-width=".5" />
</svg>
