<svg width="140" height="140" viewBox="0 0 140 140" fill="none" xmlns="http://www.w3.org/2000/svg">
<path fill-rule="evenodd" clip-rule="evenodd" d="M77.0136 132.06L75.2092 132.318L77.0115 123.997C77.5918 123.729 78.503 123.718 79.1607 123.666L82.9075 131.342L81.0988 131.597L80.3075 129.785C76.6583 130.002 77.4136 129.853 77.0136 132.06V132.06ZM65.9006 132.097C66.2528 132.838 67.1344 133.603 67.5619 134.399C65.2727 134.327 65.4742 134.41 64.5884 133.027C64.1185 132.293 64.2044 132.398 63.238 132.213C58.9237 131.387 59.365 123.122 65.1294 124.076C66.431 124.29 67.2691 124.943 67.7464 125.904C68.2779 126.972 68.245 128.518 67.9141 129.692C67.5417 131.013 66.9519 131.54 65.9006 132.097V132.097ZM53.7639 130.365L52.0009 129.987C52.1908 129.475 56.2759 123.043 56.608 122.733L58.5132 123.156C58.5206 123.23 58.5408 123.242 58.5461 123.29C58.5524 123.338 58.58 123.356 58.5885 123.379C58.8484 124.15 59.521 131.484 59.5157 131.714L58.0602 131.368C57.7557 131.234 57.9594 131.341 57.8205 131.23L57.6274 129.382C57.272 129.187 55.2247 128.717 54.6614 128.681L53.7639 130.365ZM70.2362 124.383L71.0456 124.41L71.3108 131.028L74.5325 130.966L74.6417 132.349L69.6389 132.524C69.6018 131.172 69.3027 127.085 69.5031 126.114L69.3695 125.372C69.3525 125.019 69.3398 124.773 69.3737 124.419L70.2362 124.383ZM86.3244 123.726C85.6189 123.738 84.8933 123.629 84.2441 123.887C83.6448 124.124 83.3244 124.93 84.0532 125.353C85.0557 125.935 86.4729 125.505 87.5231 126.576C89.4782 128.569 86.8166 131.39 83.4952 130.725L83.0528 129.222C84.0871 129.295 86.8134 129.597 86.4485 128.041C86.2385 127.144 83.9195 127.308 82.9117 126.614C81.0479 125.334 81.852 121.677 86.4443 122.324C86.5949 122.681 86.4792 123.377 86.3244 123.726ZM47.1286 126.21C47.7333 126.91 48.9235 127.899 50.2696 127.553C51.3167 125.596 47.2707 125.082 48.4376 122.257C49.1431 120.548 51.0462 120.714 52.5228 121.515C53.0256 121.786 53.3046 122.127 53.7374 122.344C53.5072 122.967 53.1911 123.084 52.8082 123.509C50.2771 121.369 49.5451 122.901 50.1402 123.772C50.695 124.586 52.4358 125.48 52.2109 127.123C51.9903 128.74 50.6452 129.454 48.8164 128.948C48.0908 128.748 47.4691 128.452 46.9408 128.052C46.5006 127.72 46.4773 127.571 46.8369 126.669C46.8931 126.529 46.8878 126.529 46.9557 126.42C47.0628 126.246 46.996 126.33 47.1286 126.21V126.21ZM91.8756 119.867L93.4127 119.264L96.3915 126.831L94.8639 127.363C94.4958 127.023 93.7787 124.817 93.5474 124.171C93.0181 124.322 90.8657 125.091 90.5803 125.369L91.7621 128.492C91.3887 128.801 90.7023 128.961 90.2303 129.16L87.2812 121.631L88.8385 121.039L90.0128 123.928L92.9788 122.836L91.8756 119.867V119.867ZM39.7231 124.724L38.2443 123.894L42.2584 116.928L43.7181 117.699C43.5611 118.317 42.1842 120.473 41.7556 121.224C41.1181 122.343 40.436 123.643 39.7231 124.724V124.724ZM31.7045 119.47C31.4265 119.333 30.8017 118.881 30.5524 118.631C30.7168 118.235 31.3639 117.404 31.6451 117.007C32.0513 116.431 32.4067 115.955 32.7982 115.394L35.1924 112.107C35.7376 112.365 36.5439 112.962 36.9268 113.338L36.301 120.22C36.7529 119.811 38.9837 116.215 39.7645 115.39C40.2567 115.599 40.5908 115.885 40.9748 116.225L38.6983 119.49C38.2867 120.078 36.6298 122.296 36.4377 122.771C35.9402 122.609 35.0958 121.918 34.6206 121.603L35.011 114.822L33.493 117.05C33.0442 117.671 32.202 119.04 31.7045 119.47V119.47ZM103.645 112.868C103.645 112.492 103.857 112.841 103.908 112.937L106.292 120.92C105.824 121.198 105.183 121.791 104.713 121.973L97.8639 117.1C98.1153 116.73 98.1693 116.751 98.5236 116.514C98.8175 116.317 98.9332 116.235 99.2249 116.043L103.121 118.919C103.474 119.187 104.087 119.659 104.363 119.932L104.501 119.933L102.356 113.676C102.924 113.439 103.164 113.119 103.645 112.868V112.868ZM27.8176 115.923L27.7264 118.758C27.2904 118.49 26.4948 117.721 26.1511 117.188L26.3272 114.864C24.5652 113.568 24.613 111.279 25.9941 109.551C26.1437 109.364 26.7664 108.752 26.9595 108.596C28.2696 107.533 29.8364 107.28 31.26 108.249C34.3512 110.354 33.634 113.58 30.8728 115.396C29.8162 116.091 29.1702 116.138 27.8176 115.923ZM105.205 111.397L106.777 110.153L114.176 114.382C113.905 114.806 113.891 114.685 113.512 115.025C113.124 115.374 113.206 115.384 112.775 115.592L111.106 114.528L108.939 116.466L109.678 118.265C109.313 118.709 108.765 119.09 108.34 119.428C108.111 119.176 105.396 112.16 105.205 111.397V111.397ZM109.543 109.577C109.16 109.299 108.97 109.183 108.575 108.766C108.726 108.268 109.103 108.064 109.41 107.672L111.296 105.462C111.484 105.253 111.585 105.186 111.759 104.971C112.031 104.635 111.958 104.618 112.311 104.381C113.451 105.22 113.222 105.362 113.824 107.739C114.018 108.509 114.551 111.06 114.837 111.515L117.349 108.653C117.834 108.847 117.964 109.189 118.451 109.471C118.238 109.975 116.968 111.255 116.527 111.775L115.584 112.881C115.248 113.303 114.866 113.626 114.617 114.065C113.468 113.592 113.438 112.328 113.026 110.702C112.864 110.061 112.707 109.43 112.541 108.779C112.464 108.473 112.369 108.13 112.293 107.816C112.187 107.379 112.178 107.131 111.944 106.843C111.737 107.187 111.101 107.903 110.809 108.23C110.364 108.726 110 109.188 109.543 109.577ZM22.4404 110.589C22.1614 110.378 21.5844 109.694 21.3701 109.367C21.717 108.932 22.3078 108.512 22.8117 108.057L27.476 104.11C27.807 104.51 28.2367 104.964 28.5316 105.387L25.5114 107.99C24.98 108.451 24.562 108.857 24.0295 109.273C23.584 109.621 22.8711 110.373 22.4404 110.589V110.589ZM113.021 103.472C113.166 103.149 113.722 102.396 113.996 102.161L120.342 107.081C120.092 107.476 119.658 108.096 119.289 108.377C117.184 106.747 115.125 105.154 113.021 103.472V103.472ZM19.6218 104.675C20.1469 105.605 21.0136 106.475 21.4422 107.324C21.1388 107.585 20.6911 107.911 20.3241 108.113L17.479 104.074C18.4868 103.231 19.6601 102.478 20.6986 101.729C21.3733 101.241 23.4927 99.6339 24.0295 99.3889C24.2374 99.7475 24.6405 100.314 24.945 100.67C24.6458 101.071 21.1961 103.508 20.3146 104.112L19.6218 104.675V104.675ZM124.101 101.437L120.434 101.382L120.023 102.149C120.685 102.613 121.963 103.308 122.544 103.833C122.388 104.27 121.948 104.894 121.685 105.245L115.778 101.449C115.653 101.372 115.446 101.251 115.332 101.173L114.942 100.825C115.444 99.8387 116.753 97.8241 117.7 97.3118C118.746 96.7474 121.09 97.1516 120.957 99.9299L125.148 99.8652C124.917 100.357 124.454 101.054 124.101 101.437V101.437ZM20.2286 98.4055L22.8902 97.5059C23.1172 97.8358 23.5617 98.467 23.6296 98.8999C23.0652 99.2033 21.5812 99.3963 20.8757 99.4197L20.2286 98.4055ZM125.677 98.7481C124.867 98.4681 118.666 95.7226 118.334 95.4118L118.952 93.9511L125.078 96.6233L126.422 93.6487L127.687 94.2003L125.677 98.7481V98.7481ZM15.5144 97.8857L17.025 97.211L16.3641 95.7566L17.6445 95.1742L19.0904 98.0342L15.3489 99.8769C13.8691 98.7694 11.2489 94.6788 15.3977 92.4574C18.9854 90.5362 21.6469 93.0705 21.8994 96.6191L20.4429 96.7018C20.2148 94.6459 19.2304 92.87 16.8913 93.7092C14.8811 94.4305 14.0409 95.9677 15.5144 97.8857V97.8857ZM121.411 88.1992L128.898 91.16L128.308 92.7491L120.822 89.766L121.411 88.1992V88.1992ZM9.99502 88.3127C9.51659 85.7157 11.5661 84.325 13.6654 83.8582C16.3195 83.2694 17.898 84.9296 18.299 87.1606C18.77 89.7904 16.7905 91.0868 14.653 91.5822C11.9246 92.2166 10.4024 90.5266 9.99502 88.3127V88.3127ZM129.479 84.343L127.867 83.8433L127.467 85.2903L126.115 84.9328L126.942 81.8882L130.988 82.9618C131.344 86.3607 129.566 89.6971 125.347 88.2734C122.052 87.1617 121.791 83.6004 123.905 81.0226C124.249 81.2496 124.663 81.5636 125.023 81.8564C124.814 82.3232 122.67 85.058 125.505 86.4286C127.603 87.4428 129.467 86.7352 129.479 84.343ZM123.975 77.856L131.921 79.3061L131.643 80.9483L123.684 79.5374L123.975 77.856V77.856ZM16.4288 82.7306L14.9978 82.4579C15.0869 81.7683 15.2651 81.0067 15.0625 80.2906C14.8471 79.5321 14.0218 79.4196 13.6166 79.9692C13.0247 80.7722 13.1467 82.4314 12.2121 83.2578C10.4161 84.848 7.46604 83.1315 8.28817 78.9656L9.84545 78.6315C9.77332 79.1619 9.05833 82.4473 10.7164 82.1206C11.6478 81.9381 11.6753 79.7527 12.3808 78.8553C13.1467 77.8814 14.7305 77.5632 15.7647 78.6251C16.7789 79.6647 16.6208 81.1754 16.4288 82.7306V82.7306ZM122.718 73.1533C122.175 80.8603 120.136 87.9117 117.044 93.8895C114.676 98.4713 113.287 100.203 110.458 103.783L107.315 107.258C102.242 112.307 96.0562 116.354 89.3572 119.019C75.5625 124.505 59.1614 123.796 46.0052 116.959C42.913 115.352 38.5254 112.594 36.0877 110.398C35.5721 109.935 34.6906 109.285 34.2822 108.834L30.9831 105.517C29.569 104.196 26.2477 99.6531 25.2452 98.0225C19.4829 88.6437 16.4925 78.2018 17.2212 66.4922C17.967 54.5058 22.3736 44.5605 29.4513 35.8902C30.8919 34.125 32.7408 32.3247 34.3554 30.8046C49.369 16.6699 73.5215 12.399 93.9282 22.7146C98.129 24.8373 100.547 26.5994 103.858 29.2706C107.655 32.3322 112.174 37.4634 114.695 41.6538C116.375 44.4491 117.825 47.0959 119.15 50.4343C121.802 57.1197 123.282 65.145 122.718 73.1533V73.1533ZM131.223 71.7646C130.835 71.8272 130.555 71.7179 130.198 71.9025C129.949 72.032 129.864 72.2898 129.487 72.4935C128.115 71.4984 129.394 72.0299 127.983 71.7689C127.353 71.6522 127.816 71.3127 127.554 70.6804C127.416 70.3484 127.173 70.3696 126.958 69.905C127.119 69.679 127.459 69.3926 127.536 69.2324C127.722 68.8463 127.583 68.6139 127.681 68.2299C128.025 68.0336 128.398 68.2161 128.803 67.988C129.122 67.8088 129.036 67.6157 129.538 67.4099C130.383 68.3317 129.857 67.9933 131.284 68.1365C131.46 69.3512 131.115 69.2091 132.025 69.8636C131.836 70.4577 131.677 70.2582 131.451 70.6338C131.246 70.9732 131.377 70.7081 131.328 71.108L131.223 71.7646ZM8.0304 69.8838C8.82813 68.7773 8.5014 69.8838 8.77403 68.1493C10.5053 67.8873 9.41158 68.197 10.5085 67.4056C11.041 67.6082 10.9137 67.7833 11.2478 67.9817C11.7019 68.2511 11.8864 67.988 12.3702 68.2076C12.4699 68.5895 12.3373 68.8526 12.5197 69.2282C12.6099 69.4106 12.9494 69.6663 13.1212 69.9336C12.9313 70.2412 12.6608 70.4046 12.5484 70.6051C12.2747 71.0931 12.559 71.2575 12.3256 71.701C11.8822 71.9344 11.7178 71.6501 11.2298 71.9238C11.0293 72.0362 10.8659 72.3067 10.5583 72.4966C10.2507 72.2993 10.1414 72.0754 9.9303 71.9428C9.49218 71.667 9.30019 71.8686 8.83238 71.7455C8.60854 71.2607 8.87267 71.0804 8.60429 70.6242C8.40698 70.289 8.23301 70.4142 8.0304 69.8838ZM124.585 63.3405C124.378 62.9427 124.333 62.2457 124.312 61.7238C124.979 61.396 131.085 60.7298 132.305 60.6141L132.507 62.2966L124.585 63.3405V63.3405ZM17.3432 57.3924C16.9868 59.8525 15.5452 61.3292 12.7202 60.8539C10.4565 60.4731 8.64143 59.1672 9.04985 56.5151C9.41689 54.1345 10.8585 52.7639 13.5508 53.1713C15.7775 53.5086 17.7124 54.8389 17.3432 57.3924ZM131.543 58.2527L130.17 58.0618C130.091 57.3393 130.354 56.7368 130.105 55.9613C129.903 55.3322 129.28 54.9885 128.737 55.5232C128.174 56.0769 128.284 58.0437 127.352 58.9603C126.321 59.9755 124.638 59.67 123.984 58.7153C123.4 57.8592 122.826 55.9613 123.351 54.8145L124.813 54.4602C124.72 55.2728 124.561 55.9443 124.701 56.7856C124.809 57.4412 125.159 58.1721 125.983 57.8549C126.626 57.6088 126.804 55.3205 127.418 54.4528C128.116 53.4641 129.876 53.2508 130.809 54.2958C131.654 55.242 131.716 56.7707 131.543 58.2527V58.2527ZM11.3274 48.7338C12.0647 48.9014 13.0746 50.0376 13.6506 50.4004L13.2931 51.5885C12.5049 51.2299 11.7857 50.6391 10.8882 50.2741L11.3274 48.7338V48.7338ZM120.076 46.9261L128.699 46.6768L129.404 48.6023C128.927 49.0966 128.342 49.5708 127.796 50.0196L124.548 52.7873C124.098 53.1363 123.317 53.9478 122.898 54.1388L122.217 52.5072C122.737 52.0606 123.218 51.7275 123.749 51.2565L122.657 48.5238L120.691 48.6511L120.076 46.9261V46.9261ZM13.082 47.7207L11.844 47.1988C11.949 46.6111 13.9433 42.3147 14.2595 41.9466C15.3532 42.3338 15.2025 42.3019 15.7117 43.1867C16.0734 43.8168 18.2683 47.7515 18.7159 48.145L20.2976 44.6305L21.5854 45.1874L19.1031 50.6104C17.7591 50.2519 17.7623 49.5506 16.6633 47.7706C16.2697 47.133 15.001 44.727 14.6148 44.4013L13.082 47.7207V47.7207ZM117.085 41.03C117.464 40.6714 120.254 39.3135 120.639 39.129C121.624 38.6579 123.332 37.5716 124.262 37.3022L124.964 38.8606C123.997 39.217 122.734 39.9628 121.825 40.4465C122.302 40.6735 124.438 40.9738 125.104 41.1021C126.139 41.3016 126.522 41.1234 127.11 43.0169L122.68 42.216L120.01 46.6493C118.374 44.6899 119.713 44.4151 121.122 41.6315C120.39 40.9918 120.234 41.2305 119.51 41.6156C118.979 41.8988 118.406 42.2722 117.812 42.4568L117.085 41.03V41.03ZM15.2672 39.827C15.6661 38.938 17.0663 36.5405 17.6148 36.0854C18.8973 35.0225 21.1547 35.8733 20.7898 37.7637C21.1696 37.5823 21.2863 37.282 21.8633 37.1972C22.8605 37.0508 24.3244 37.9132 24.2936 39.4663C24.2713 40.5653 22.7184 43.1952 22.1816 43.8518L15.2672 39.827ZM120.528 33.6062C120.974 33.289 120.942 33.2275 121.334 33.1044C121.633 33.4185 122.122 34.0974 122.262 34.4135C121.906 34.8241 121.114 35.2813 120.637 35.6409C120.054 36.0801 119.629 36.3793 119.028 36.7994C118.47 37.1887 117.999 37.5526 117.428 37.9652C117.037 38.2495 116.215 38.8881 115.8 39.0982C115.501 38.8277 115.02 38.1986 114.824 37.7817L120.528 33.6062V33.6062ZM20.0419 32.1051C20.9192 31.161 22.3099 29.1199 22.9209 28.6097C23.3484 28.8452 23.6826 29.1157 23.9722 29.4785C23.5712 30.0248 22.4192 31.2565 22.2102 31.7837C22.6452 32.0733 23.1023 32.5231 23.5511 32.7968C24.0093 32.4605 24.6808 31.2416 25.3226 30.7154C25.6165 30.9361 26.0132 31.2289 26.2965 31.5259C26.0196 32.2346 25.0702 32.9984 24.7297 33.6911C25.1094 34.1271 25.7608 34.5864 26.2901 34.9397L27.248 33.8067C27.5068 33.4842 27.8696 33.0588 28.0606 32.7215C28.5284 32.9231 28.8392 33.2286 29.1818 33.5712C28.7968 34.3807 26.8057 36.4429 26.4333 37.1908C25.6271 36.7983 20.1745 32.347 20.0419 32.1051V32.1051ZM110.731 32.7289C111.037 32.1953 116.099 27.9254 116.762 27.4449C117.12 27.6878 117.684 28.3084 117.877 28.79L114.715 31.4071C114.128 31.8983 113.534 32.5687 112.885 32.9337C113.148 33.5086 113.545 33.794 113.907 34.2587C114.269 34.7222 114.593 35.0447 114.931 35.4956C114.612 35.9157 114.316 36.1215 113.909 36.4143L112.296 34.5461C111.742 33.8842 111.262 33.3654 110.731 32.7289V32.7289ZM110.626 21.4426C111.292 21.8065 111.661 22.4006 112.243 22.9278C115.996 26.3225 112.853 27.8597 111.38 27.3399C112.28 29.2186 110.639 30.8831 108.75 30.2763C107.832 29.9813 105.367 27.6464 105.171 27.1415L110.626 21.4426ZM35.1372 27.7292C34.9802 27.8384 34.4148 28.4516 34.2207 28.6298C33.6807 29.1252 33.7327 29.0351 32.8745 28.7911C32.3388 28.6394 30.2628 27.9626 29.8597 28.1567C29.6115 29.3459 30.4092 29.5379 31.6684 30.9414C31.4074 31.248 30.8452 31.8134 30.5301 32.12C30.1281 31.9121 29.568 31.1599 29.0514 30.691C28.3215 30.028 25.7523 27.0068 24.9439 26.3862C25.1126 26.0223 25.852 25.2839 26.1702 25.1439L28.6663 27.6814C28.5634 26.5442 28.4297 25.3497 28.3311 24.187C28.2589 23.3363 28.0956 23.2217 28.6016 22.7708C28.9315 22.477 29.2604 22.1545 29.638 21.8797L30.0262 26.349L35.1372 27.7292V27.7292ZM31.1656 20.6979C31.4276 20.3924 32.011 19.9235 32.4258 19.6923C32.8554 19.9957 37.2609 25.7285 37.3946 25.9915C37.0657 26.3055 36.4972 26.8444 35.9944 27.0057C35.7684 26.4891 34.0552 24.4607 33.5969 23.8582L31.1656 20.6979ZM37.8444 23.2238C38.8076 22.9002 41.222 22.6032 40.7521 21.2782C40.366 20.1919 37.9048 21.275 36.5746 20.6375C34.4912 19.6381 35.0343 16.0112 39.1555 15.6399L39.355 17.0391C38.6527 17.1993 37.9897 17.3117 37.4784 17.6905C37.0392 18.0172 36.6584 18.8181 37.4413 19.1671C38.5276 19.652 40.3034 18.4723 41.5679 19.6159C43.926 21.7492 41.0056 24.2974 38.5636 24.535L37.8444 23.2238V23.2238ZM105.127 23.2578C104.064 24.8734 102.589 25.4028 100.575 24.1319C99.0329 23.158 98.2733 21.6612 99.5664 19.6201L102.229 15.4934L103.621 16.3665C103.113 17.3796 102.266 18.5413 101.648 19.5374C100.972 20.6269 99.8422 21.937 101.38 22.9607C102.972 24.0205 103.736 22.2606 104.359 21.2899L105.893 18.851C105.986 18.7067 106.065 18.572 106.126 18.485C106.217 18.3588 106.211 18.3736 106.29 18.2803L107.744 19.0133L105.127 23.2578V23.2578ZM94.7387 11.7646C95.3604 11.9269 97.0173 12.7151 97.5838 13.045C100.403 14.6872 98.6902 17.3956 97.2762 17.8178C96.0106 18.1965 95.1185 17.5143 94.1595 17.2152L92.9406 19.7347L91.5319 19.0727C91.5192 19.0324 91.482 19.0335 91.447 19.007L94.7387 11.7646V11.7646ZM52.1112 9.49758C54.6168 9.00853 55.9418 11.0178 56.4181 13.0631C57.5765 18.0352 50.1296 20.2216 48.758 14.2342C48.095 11.3392 49.7095 9.96647 52.1112 9.49758ZM45.6594 11.7455L46.0476 12.3831C46.1527 12.5868 46.2386 12.7703 46.3446 12.9782L44.3885 13.9266L47.4161 19.9034L45.9182 20.6608L42.9172 14.7456L40.9674 15.7024L40.2874 14.474L45.6594 11.7455V11.7455ZM88.655 16.3559C90.1836 14.4337 85.7218 13.933 86.9587 10.9828C87.9198 8.68922 91.3335 9.86678 92.2426 11.1928C92.1206 11.4209 91.5139 12.0903 91.36 12.2314C91.0185 11.9853 90.3947 11.4548 89.8569 11.265C89.0284 10.9732 88.2094 11.2872 88.5213 12.2218C88.778 12.9931 90.348 13.7696 90.6896 15.0065C91.0959 16.48 90.0075 17.7064 88.7314 17.8262C87.0553 17.9832 86.0136 17.0561 85.0716 16.5384L85.602 14.9864C86.4453 15.5539 87.1465 16.5119 88.655 16.3559V16.3559ZM74.2513 11.9619L73.5215 11.8463L73.3369 12.3258L73.2223 14.5684L73.0897 14.9482C72.7089 14.9408 72.4341 14.9482 72.1711 14.7689L71.4497 14.7742L72.1095 6.71078C73.7867 6.81686 75.9539 6.80943 76.949 7.81404C77.7658 8.63831 77.9122 10.8661 75.7991 11.5715L77.84 15.294L75.9794 15.1466C75.7449 14.5811 74.6343 12.2749 74.2513 11.9619ZM79.0843 15.5242C79.148 14.6671 80.3213 8.12804 80.5547 7.64642L85.0387 8.43674C85.0122 8.91094 84.9453 9.42015 84.7554 9.82645L81.9931 9.35863C81.7544 9.80206 81.6929 10.5202 81.6229 11.0698L84.2993 11.5439L84.0712 12.939L81.3471 12.5019L81.049 14.5185C81.7374 14.6225 83.3626 14.8707 83.8644 15.0829L83.6458 16.3655C83.0019 16.3771 79.5394 15.764 79.0843 15.5242V15.5242ZM64.564 12.9612L64.65 12.905L63.882 7.22209L65.3946 6.9346L66.4268 14.9524L64.3073 15.1985C63.5106 14.3997 60.4396 10.0545 60.0015 9.66839C60.0503 10.8512 60.9711 14.8262 60.7483 15.6961L59.3184 15.8149L58.3085 7.848L60.4768 7.58491C60.6688 7.96257 61.214 8.61074 61.4877 8.95975L63.5732 11.6882C63.8819 12.0892 64.2925 12.5464 64.564 12.9612V12.9612ZM70.6838 135.456C86.3148 135.456 101.211 129.431 112.79 119.589L116.414 116.238C118.11 114.54 120.647 111.606 122.117 109.668C130.906 98.0925 135.595 84.6241 135.595 69.1836C135.595 50.6688 127.023 32.835 114.118 21.2941L109.67 17.5642C108.932 16.9776 108.119 16.4079 107.287 15.852C105.682 14.7785 104.07 13.6741 102.268 12.6928C100.489 11.7222 98.8377 10.8661 96.9272 9.97496C80.4974 2.30615 59.3289 2.28706 42.9108 10.011C38.2772 12.19 31.679 16.0536 27.8601 19.5002L26.7675 20.4497C25.6472 21.4299 24.7116 22.2213 23.6561 23.3564C22.7587 24.3218 21.6873 25.2755 20.6806 26.5188C19.0703 28.5089 17.7251 29.8731 16.1742 32.2388C15.0561 33.9446 14.0144 35.4309 12.996 37.2438C7.63048 46.8052 4.33984 57.4931 4.33984 69.4233C4.33984 79.0833 6.46465 89.3735 10.2316 97.0306C12.1272 100.886 13.8723 104.261 16.1339 107.374C16.9263 108.462 20.4662 113.165 21.5949 114.183C22.2685 114.791 22.8679 115.556 23.5245 116.224L26.7133 119.171C27.8516 120.319 30.9682 122.675 32.36 123.628C43.7244 131.407 55.9184 135.456 70.6838 135.456V135.456Z" fill="#58C0F9"/>
<path fill-rule="evenodd" clip-rule="evenodd" d="M69.5668 26.6814C71.3638 26.4364 72.4597 27.3996 73.2478 28.1899L81.3673 36.3117C83.5101 38.4546 82.8174 38.1194 84.9422 38.1183H95.7698C97.587 38.1183 99.0477 37.9624 100.227 38.9871C101.309 39.9271 101.757 40.8574 101.753 42.8433L101.757 56.4422C101.844 57.0331 102.593 57.538 102.963 57.9083L111.084 66.029C111.829 66.7737 112.945 67.6383 113.179 69.2274C113.463 71.1614 112.517 72.1893 111.659 73.0496L103.537 81.1704C102.345 82.3628 101.768 82.5972 101.742 83.4989C101.647 86.935 101.752 92.0355 101.752 95.6604C101.752 98.9362 101.463 101.57 96.9728 101.56H86.1451C82.7123 101.56 83.5366 101.171 81.9411 102.767L73.8207 110.888C72.6485 112.06 70.8536 113.967 68.2376 112.608C67.0708 112.004 59.7565 104.385 58.6638 103.292C57.393 102.021 57.2922 101.561 56.3184 101.551C55.8802 101.547 55.4262 101.56 54.9849 101.56H44.1573C42.2563 101.56 41.0342 101.622 39.7697 100.647C38.6824 99.8093 38.3069 98.4971 38.309 96.7446L38.3101 85.9155C38.3101 82.4773 38.6814 83.309 37.0679 81.6955L28.9474 73.5748C28.1613 72.7887 27.0888 72.0386 26.8767 70.371C26.6306 68.4371 27.5789 67.4368 28.435 66.5838L37.9473 57.0882C38.3037 56.7339 38.3111 56.7498 38.3196 56.0858L38.3101 43.9264C38.3101 42.1877 38.2581 40.6739 39.2224 39.5929C40.2206 38.4748 41.153 38.113 43.1951 38.1183H54.0228C57.358 38.1183 56.5231 38.4949 58.1515 36.8665L66.273 28.7458C67.0994 27.9183 67.825 26.9201 69.5668 26.6814ZM20.7728 73.7636C21.3849 81.3518 23.1713 86.3886 26.3293 92.916C28.155 96.6904 30.2956 99.1993 32.6252 102.141C33.4834 103.225 34.7458 104.37 35.6379 105.264C35.9307 105.557 36.0771 105.792 36.3943 106.068C37.8009 107.29 39.0898 108.442 40.6163 109.549C58.8601 122.769 82.8821 122.529 100.524 108.717L103.84 105.895C105.36 104.252 106.95 102.853 108.3 101.092C111.791 96.542 114.016 93.2331 116.207 87.4643C118.627 81.0929 119.904 73.5567 119.298 66.0057C118.732 58.9596 116.676 52.1362 113.741 46.7673C112.159 43.8734 109.657 39.8804 107.436 37.554C107.118 37.2208 107.005 37.0331 106.722 36.7C105.753 35.5543 102.497 32.5383 101.215 31.504C88.6773 21.3899 71.5749 17.6049 55.7254 22.5303C49.6013 24.4335 42.5395 28.0605 37.7861 32.3845C36.6351 33.4326 34.0774 35.7728 33.1821 36.9217C32.9296 37.2453 32.6995 37.4267 32.447 37.7481L30.3625 40.3556C23.3697 49.953 19.7714 61.3687 20.7728 73.7636V73.7636Z" fill="white"/>
<path fill-rule="evenodd" clip-rule="evenodd" d="M71.7501 48.8516L71.8785 49.0044C74.1178 48.8463 75.1945 48.2957 77.7426 48.7264C81.1786 49.3067 83.8603 50.6519 86.5526 52.6526L89.9324 55.6474C92.0784 58.083 93.5498 60.4529 94.6848 63.7702C95.8804 67.2667 96.1328 71.0762 95.3415 74.8729C93.9635 81.482 90.1615 86.4085 84.8829 90.0313C79.7072 93.5819 72.3336 95.7927 64.6491 93.9224C60.9341 93.0175 58.0413 92.0203 55.664 90.0366C54.4674 89.0394 53.2316 88.0369 52.3193 87.0068C51.2776 85.8293 50.4926 84.8618 49.54 83.4084C46.0202 78.0406 44.5287 70.0069 46.4498 62.6669C48.3009 55.5943 52.523 51.2438 57.827 48.4146C59.031 47.7717 60.9065 46.9273 62.362 46.5708C63.5999 46.2674 64.5525 45.3636 66.846 44.6804C69.1501 43.9941 72.8109 44.1362 75.0131 45.1811C75.6666 45.4909 76.5768 45.9545 76.7444 46.661C75.5733 47.1713 72.9754 48.6225 71.7501 48.8516ZM41.6645 97.8762C42.1271 98.4755 42.7582 98.2856 43.6292 98.2846H56.2623C58.7711 98.2835 57.913 97.9462 59.8129 99.8451L67.3319 107.365C67.7127 107.745 69.4864 109.743 69.9775 109.747C70.5058 109.752 74.4849 105.531 75.1033 104.914L81.3504 98.6506C81.9052 98.0915 82.3455 98.2835 83.5718 98.2846H96.2049C97.0886 98.2846 97.8046 98.4819 98.3 97.8995C98.5642 97.159 98.3977 85.0835 98.3955 83.1835C98.3934 81.1382 98.3594 81.6559 99.4659 80.5505L108.789 71.2258C110.344 69.6727 110.374 70.0673 107.441 67.1341L99.0797 58.7726C98.6777 58.3758 98.404 58.3313 98.3859 57.5675C98.282 52.903 98.4379 47.4396 98.4018 42.6319C98.3902 41.029 97.34 41.4618 95.8432 41.4618L82.8493 41.4629C81.8395 41.4735 81.8681 41.5965 81.3292 41.0311C78.5372 38.1053 74.9644 34.6565 72.01 31.7021C69.5734 29.2654 70.4888 29.19 66.1554 33.5236L58.7 40.9855C57.9914 41.7281 57.4122 41.4618 55.42 41.4618H44.2306C41.1373 41.4618 41.5754 40.7563 41.5754 46.2483L41.5839 57.4455C41.5828 58.4246 41.2317 58.448 40.0489 59.6308C37.5327 62.1471 35.1055 64.5743 32.5893 67.0906C29.5172 70.1628 29.6477 69.6801 31.119 71.1515L40.4435 80.4752C41.5107 81.5435 41.5796 81.0905 41.5754 83.0637C41.5712 84.883 41.429 97.245 41.6645 97.8762V97.8762Z" fill="#5AC4FA"/>
<path fill-rule="evenodd" clip-rule="evenodd" d="M70.7108 135.528C55.9454 135.528 43.7514 131.478 32.387 123.699C30.9952 122.747 27.8785 120.391 26.7403 119.243L23.5515 116.296C22.8948 115.627 22.2955 114.863 21.6219 114.255C20.4932 113.236 16.9533 108.534 16.1608 107.445C13.8992 104.333 12.1542 100.957 10.2585 97.102C6.49158 89.4448 4.36677 79.1547 4.36677 69.4947C4.36677 57.5645 7.65741 46.8765 13.023 37.3152C14.0414 35.5022 15.083 34.016 16.2011 32.3102C17.752 29.9445 19.0972 28.5803 20.7075 26.5901C21.7142 25.3468 22.7856 24.3931 23.683 23.4278C24.7386 22.2927 25.6742 21.5013 26.7944 20.521L27.887 19.5716C31.7059 16.1249 38.3041 12.2614 42.9378 10.0824C59.3559 2.35843 80.5244 2.37752 96.9542 10.0463C98.8647 10.9374 100.516 11.7935 102.295 12.7642C104.097 13.7455 105.709 14.8498 107.314 15.9234C108.146 16.4793 108.959 17.0489 109.697 17.6356L114.145 21.3655C127.05 32.9064 135.622 50.7401 135.622 69.2549C135.622 84.6955 130.933 98.1639 122.144 109.74C120.674 111.677 118.137 114.611 116.441 116.31L112.818 119.661C101.238 129.502 86.3418 135.528 70.7108 135.528V135.528ZM68.1829 0.796875H71.8162C77.64 0.950697 83.4925 1.85028 89.2803 3.52216C95.5804 5.3415 101.264 7.93632 106.78 11.4074C111.215 14.1985 114.821 17.0564 118.503 20.7385C123.296 25.5314 126.133 29.1924 129.64 34.9877C130.901 37.0712 132.885 41.009 133.839 43.4214C134.067 43.9985 134.265 44.4186 134.461 44.9649C134.644 45.4731 134.822 45.9186 135.026 46.4458C138.946 56.5896 139.918 69.1711 138.361 79.9981C137.986 82.6014 137.521 84.7411 136.929 87.1088C136.15 90.2235 134.962 93.7539 133.72 96.6521L132.431 99.5748C131.48 101.504 130.539 103.317 129.445 105.13C127.898 107.691 126.975 109.093 125.194 111.467L122.355 115.005C121.944 115.428 121.744 115.743 121.332 116.147C120.917 116.551 120.756 116.843 120.37 117.231L114.882 122.45C109.153 127.065 104.852 130.046 97.98 133.099C90.4217 136.458 80.8426 139.036 69.9895 139.036C60.1388 139.036 53.3783 137.317 44.7995 134.268C42.5156 133.457 38.232 131.325 36.1443 130.17C35.6373 129.89 35.3053 129.655 34.7802 129.369C34.272 129.093 33.9082 128.84 33.4382 128.545C32.545 127.983 31.7208 127.475 30.8891 126.884C27.6367 124.573 24.4214 122.04 21.5954 119.214C19.4133 117.032 17.3585 114.886 15.5233 112.412C12.517 108.357 9.46925 103.997 7.46327 99.2979C5.35332 94.3555 4.45484 92.7292 2.95273 86.7238C1.18861 79.6681 0.931885 75.2773 0.931885 68.0509C0.931885 65.3542 1.21512 62.5897 1.56943 60.1466C1.9195 57.7385 2.39899 55.324 2.95273 53.109C4.31587 47.6595 5.36181 45.3468 7.39326 40.5858C8.21751 38.655 10.6828 34.2865 11.9516 32.3908L13.6605 29.8883C13.9639 29.4438 14.2344 29.0598 14.5601 28.6216L16.4133 26.2655C16.7665 25.8274 17.0031 25.5908 17.3447 25.1506L18.8755 23.4331C20.7414 21.096 25.6742 16.7689 28.2244 14.8562C28.6593 14.5305 29.0295 14.2547 29.4623 13.9279C29.8771 13.615 30.2516 13.3954 30.6664 13.0867C31.9902 12.1044 35.685 9.81401 37.3059 9.01838C37.8417 8.75529 38.1079 8.55478 38.6277 8.29488C47.9968 3.6134 58.0161 1.06951 68.1829 0.796875V0.796875Z" fill="#3D8AED"/>
<path fill-rule="evenodd" clip-rule="evenodd" d="M20.7321 73.7989C19.7307 61.4041 23.329 49.9884 30.3218 40.391L32.4063 37.7834C32.6588 37.462 32.889 37.2806 33.1414 36.957C34.0368 35.8081 36.5944 33.4679 37.7454 32.4198C42.4989 28.0958 49.5607 24.4688 55.6847 22.5657C71.5342 17.6402 88.6366 21.4253 101.174 31.5393C102.457 32.5736 105.712 35.5896 106.681 36.7353C106.964 37.0684 107.078 37.2562 107.395 37.5893C109.616 39.9157 112.119 43.9087 113.7 46.8027C116.636 52.1716 118.691 58.9949 119.257 66.041C119.864 73.5921 118.586 81.1283 116.167 87.4997C113.975 93.2685 111.751 96.5773 108.259 101.127C106.909 102.888 105.319 104.287 103.8 105.931L100.484 108.753C82.8414 122.565 58.8194 122.804 40.5756 109.584C39.0491 108.478 37.7602 107.326 36.3536 106.104C36.0364 105.828 35.89 105.592 35.5972 105.299C34.7051 104.405 33.4427 103.261 32.5845 102.176C30.255 99.2347 28.1143 96.7258 26.2886 92.9513C23.1306 86.424 21.3442 81.3871 20.7321 73.7989V73.7989ZM122.738 73.1974C123.303 65.1891 121.823 57.1639 119.171 50.4785C117.846 47.14 116.396 44.4932 114.716 41.6979C112.195 37.5076 107.676 32.3763 103.879 29.3147C100.567 26.6435 98.1499 24.8815 93.9491 22.7587C73.5423 12.4431 49.3898 16.7141 34.3762 30.8487C32.7617 32.3689 30.9127 34.1691 29.4721 35.9344C22.3944 44.6046 17.9878 54.55 17.242 66.5364C16.5133 78.246 19.5037 88.6878 25.266 98.0667C26.2685 99.6972 29.5899 104.24 31.0039 105.562L34.303 108.878C34.7114 109.33 35.593 109.979 36.1085 110.442C38.5463 112.638 42.9338 115.397 46.0261 117.003C59.1822 123.84 75.5834 124.55 89.3781 119.063C96.0771 116.398 102.263 112.351 107.335 107.302L110.479 103.827C113.308 100.247 114.696 98.5155 117.065 93.9337C120.156 87.9559 122.196 80.9044 122.738 73.1974V73.1974Z" fill="#3D8AED"/>
<path fill-rule="evenodd" clip-rule="evenodd" d="M64.2033 86.5391H77.2025C77.4253 87.0886 77.6618 87.9213 77.6353 88.6268C73.0091 90.2849 68.3468 89.9688 63.762 88.5207C63.7705 87.8322 63.971 87.0557 64.2033 86.5391ZM70.7061 80.4827C71.6693 80.9389 75.3196 83.4086 75.7927 84.2169H65.593C66.2815 83.276 69.8977 80.8169 70.7061 80.4827ZM65.0817 73.3847L76.3157 73.3539C75.8394 74.3383 74.7318 74.9653 73.6923 75.6591C72.8341 76.2309 71.5675 77.191 70.7061 77.61C69.9911 77.314 65.6301 74.4869 65.0817 73.3847ZM64.0888 67.689H77.2927C77.8984 68.1526 77.9016 70.5873 77.3235 71.0296H64.0888C63.6793 70.9044 63.7111 69.8319 63.7079 69.4267C63.7026 68.7679 63.6772 67.9765 64.0888 67.689ZM70.7061 61.1086C71.5494 61.5054 72.8542 62.4994 73.7029 63.0617C74.839 63.8148 75.7608 64.3495 76.3241 65.3287L65.0743 65.3456C65.593 64.253 68.0169 62.8686 69.1637 62.1048C69.6442 61.7855 70.1693 61.3282 70.7061 61.1086ZM72.885 59.6797C73.1788 59.2957 74.6799 58.4035 75.2114 58.0513C75.6208 57.7797 76.0579 57.5156 76.4196 57.209C78.2994 55.6114 79.5554 53.5236 79.9564 50.6604C83.142 51.7934 86.1239 54.8656 87.8297 57.715C90.7469 62.5874 92.3296 70.0091 90.4297 75.7896C88.829 80.6567 84.4563 85.8569 79.9701 87.6529C79.4291 86.8562 79.689 83.6483 75.223 80.6684C74.6862 80.3109 73.2277 79.4325 72.8861 79.0495C73.2393 78.6061 75.7121 77.1517 76.5087 76.5502C80.9811 73.1746 81.3015 66.0723 76.6487 62.2809C76.2849 61.9849 75.834 61.6974 75.3715 61.3898C74.805 61.0132 73.2658 60.0902 72.885 59.6797V59.6797ZM68.5134 79.0495C67.3561 80.2854 63.5085 81.2996 61.8992 86.0044C61.7369 86.4796 61.6669 87.1703 61.442 87.5808C58.6882 86.6918 54.8035 83.5454 53.2727 80.9654C49.0316 73.8154 48.8396 64.8407 53.3852 57.8794C54.3261 56.4388 55.6585 54.8964 56.9049 53.9374C57.9594 53.1269 60.0078 51.5059 61.442 51.0328C61.9067 52.0512 61.7083 53.7623 64.0156 56.2627C65.5591 57.9346 68.0647 59.1058 68.5091 59.6797C68.1124 60.0924 66.6984 60.9336 66.1001 61.3314C65.1124 61.9902 64.4749 62.4612 63.7811 63.224C62.471 64.6635 61.3985 66.6123 61.3816 69.3047C61.3657 71.8029 62.4233 74.1474 63.7228 75.4448C64.5311 76.251 64.9374 76.6043 66.0417 77.3384C66.553 77.6789 68.2323 78.7101 68.5134 79.0495V79.0495ZM70.7061 58.2359C69.8733 57.8837 66.3483 55.4735 65.6015 54.5028H75.8001C75.4256 55.273 71.6173 57.7797 70.7061 58.2359ZM63.7196 49.9147C64.9385 50.0961 65.558 50.6785 67.2171 50.6265C68.785 50.5777 68.89 49.885 70.6774 50.0027C71.9207 50.0844 73.2849 50.1258 74.3563 49.6134C75.4606 49.0862 76.4822 49.5413 77.6745 49.8224C77.6586 50.4175 77.5706 52.1796 76.932 52.1796H64.4505C63.8257 52.1796 63.7578 50.5194 63.7196 49.9147V49.9147ZM71.7054 46.5306C71.577 46.0564 71.7075 45.8167 72.1774 45.7668C72.6431 45.718 72.7704 45.8994 72.9317 46.2049C72.7566 46.8764 72.1965 46.852 71.7054 46.5306V46.5306ZM71.8857 48.961L71.6343 49.0787C71.5515 48.508 71.5813 48.9663 71.7574 48.8082C72.9826 48.5791 75.5805 47.1279 76.7517 46.6176C76.5841 45.9111 75.6738 45.4475 75.0204 45.1377C72.8181 44.0928 69.1573 43.9507 66.8532 44.637C64.5598 45.3202 63.6072 46.224 62.3692 46.5274C60.9138 46.8839 59.0383 47.7283 57.8342 48.3712C52.5302 51.2004 48.3082 55.5509 46.457 62.6235C44.5359 69.9635 46.0274 77.9972 49.5472 83.365C50.4998 84.8184 51.2848 85.7859 52.3265 86.9634C53.2388 87.9935 54.4746 88.996 55.6712 89.9932C58.0485 91.9769 60.9414 92.9741 64.6563 93.879C72.3408 95.7492 79.7145 93.5385 84.8902 89.9879C90.1688 86.3651 93.9707 81.4386 95.3487 74.8295C96.1401 71.0328 95.8876 67.2233 94.6921 63.7268C93.557 60.4095 92.0856 58.0396 89.9396 55.604L86.5599 52.6092C83.8676 50.6085 81.1858 49.2633 77.7498 48.683C75.2018 48.2523 74.1251 48.8029 71.8857 48.961Z" fill="white"/>
<path fill-rule="evenodd" clip-rule="evenodd" d="M41.6247 97.8954C41.3892 97.2642 41.5313 84.9023 41.5356 83.083C41.5398 81.1098 41.4709 81.5628 40.4037 80.4945L31.0792 71.1708C29.6078 69.6994 29.4773 70.1821 32.5494 67.1099C35.0657 64.5936 37.4928 62.1664 40.0091 59.6501C41.1919 58.4673 41.543 58.4439 41.544 57.4648L41.5356 46.2676C41.5356 40.7756 41.0975 41.4811 44.1908 41.4811H55.3802C57.3724 41.4811 57.9516 41.7474 58.6602 41.0048L66.1156 33.5429C70.449 29.2093 69.5335 29.2847 71.9702 31.7214C74.9246 34.6758 78.4973 38.1246 81.2894 41.0504C81.8283 41.6158 81.7997 41.4928 82.8095 41.4822L95.8034 41.4811C97.3002 41.4811 98.3504 41.0483 98.3621 42.6512C98.3981 47.4589 98.2422 52.9223 98.3462 57.5868C98.3642 58.3506 98.6379 58.3951 99.0399 58.7919L107.401 67.1534C110.334 70.0866 110.305 69.692 108.75 71.2451L99.4261 80.5698C98.3197 81.6752 98.3536 81.1575 98.3557 83.2028C98.3579 85.1028 98.5244 97.1783 98.2602 97.9188C97.7648 98.5012 97.0488 98.3039 96.1651 98.3039H83.532C82.3057 98.3028 81.8654 98.1108 81.3106 98.6699L75.0635 104.933C74.4451 105.55 70.466 109.772 69.9377 109.766C69.4465 109.762 67.6729 107.764 67.292 107.385L59.773 99.8644C57.8731 97.9655 58.7313 98.3028 56.2225 98.3039H43.5893C42.7184 98.3049 42.0872 98.4948 41.6247 97.8954V97.8954ZM69.4805 26.7365C67.7386 26.9752 67.0131 27.9735 66.1867 28.8009L58.0651 36.9216C56.4368 38.55 57.2716 38.1734 53.9365 38.1734H43.1087C41.0667 38.1681 40.1343 38.5299 39.136 39.648C38.1718 40.729 38.2237 42.2428 38.2237 43.9815L38.2333 56.1408C38.2248 56.8049 38.2174 56.789 37.8609 57.1433L28.3486 66.6389C27.4926 67.4918 26.5442 68.4922 26.7903 70.4261C27.0025 72.0937 28.0749 72.8438 28.861 73.6298L36.9815 81.7505C38.595 83.3641 38.2237 82.5324 38.2237 85.9706L38.2226 96.7996C38.2205 98.5522 38.5961 99.8644 39.6834 100.702C40.9479 101.677 42.17 101.615 44.0709 101.615H54.8986C55.3399 101.615 55.7939 101.602 56.232 101.606C57.2058 101.616 57.3067 102.076 58.5775 103.347C59.6701 104.44 66.9844 112.059 68.1513 112.663C70.7673 114.022 72.5621 112.115 73.7343 110.943L81.8548 102.822C83.4503 101.226 82.626 101.615 86.0588 101.615H96.8865C101.377 101.625 101.665 98.9913 101.665 95.7154C101.665 92.0906 101.56 86.99 101.656 83.554C101.681 82.6523 102.258 82.4178 103.451 81.2255L111.572 73.1047C112.431 72.2444 113.377 71.2164 113.092 69.2825C112.859 67.6934 111.743 66.8288 110.997 66.0841L102.877 57.9634C102.507 57.5931 101.758 57.0882 101.671 56.4973L101.667 42.8984C101.671 40.9125 101.223 39.9822 100.141 39.0423C98.9614 38.0175 97.5007 38.1734 95.6835 38.1734H84.8558C82.731 38.1745 83.4238 38.5097 81.281 36.3668L73.1615 28.245C72.3733 27.4547 71.2775 26.4915 69.4805 26.7365V26.7365Z" fill="#3D8AED"/>
<path fill-rule="evenodd" clip-rule="evenodd" d="M68.5171 79.2306C68.236 78.8911 66.5567 77.86 66.0454 77.5195C64.9411 76.7854 64.5348 76.4321 63.7264 75.6259C62.427 74.3285 61.3693 71.984 61.3853 69.4857C61.4022 66.7933 62.4747 64.8446 63.7848 63.405C64.4786 62.6423 65.1161 62.1713 66.1037 61.5125C66.702 61.1147 68.1161 60.2734 68.5128 59.8608C68.0683 59.2868 65.5627 58.1157 64.0193 56.4438C61.712 53.9434 61.9103 52.2323 61.4457 51.2139C60.0115 51.687 57.9631 53.308 56.9086 54.1185C55.6622 55.0775 54.3298 56.6199 53.3889 58.0605C48.8433 65.0217 49.0353 73.9964 53.2764 81.1465C54.8072 83.7264 58.6918 86.8729 61.4457 87.7619C61.6706 87.3514 61.7406 86.6607 61.9029 86.1855C63.5122 81.4806 67.3597 80.4665 68.5171 79.2306V79.2306Z" fill="#5AC4FA"/>
<path fill-rule="evenodd" clip-rule="evenodd" d="M72.8889 59.6838C73.2697 60.0944 74.809 61.0173 75.3754 61.3939C75.838 61.7015 76.2888 61.989 76.6527 62.285C81.3054 66.0764 80.985 73.1788 76.5127 76.5544C75.716 77.1559 73.2433 78.6102 72.89 79.0537C73.2316 79.4366 74.6902 80.315 75.2269 80.6725C79.6929 83.6524 79.433 86.8604 79.9741 87.6571C84.4602 85.8611 88.8329 80.6608 90.4336 75.7937C92.3336 70.0132 90.7508 62.5916 87.8336 57.7191C86.1278 54.8697 83.1459 51.7975 79.9603 50.6646C79.5593 53.5278 78.3033 55.6155 76.4236 57.2131C76.0618 57.5197 75.6248 57.7839 75.2153 58.0554C74.6838 58.4076 73.1828 59.2998 72.8889 59.6838V59.6838Z" fill="#5AC4FA"/>
<path fill-rule="evenodd" clip-rule="evenodd" d="M64.0783 67.7536C63.6668 68.0411 63.6922 68.8325 63.6975 69.4913C63.7007 69.8965 63.6689 70.9691 64.0783 71.0942H77.313C77.8912 70.6519 77.888 68.2172 77.2823 67.7536H64.0783Z" fill="#5AC4FA"/>
<path fill-rule="evenodd" clip-rule="evenodd" d="M64.1808 86.4681C63.9485 86.9848 63.748 87.7613 63.7395 88.4498C68.3243 89.8978 72.9866 90.214 77.6128 88.5559C77.6393 87.8504 77.4027 87.0176 77.18 86.4681H64.1808Z" fill="#5AC4FA"/>
<path fill-rule="evenodd" clip-rule="evenodd" d="M63.5909 125.595C66.9282 124.318 67.0915 129.976 65.0166 130.791C61.7504 132.074 61.4152 126.428 63.5909 125.595ZM65.9119 132.122C66.9632 131.566 67.553 131.038 67.9253 129.718C68.2563 128.544 68.2892 126.998 67.7577 125.929C67.2804 124.969 66.4423 124.316 65.1407 124.102C59.3763 123.148 58.935 131.413 63.2493 132.239C64.2157 132.424 64.1298 132.319 64.5997 133.053C65.4855 134.436 65.2839 134.352 67.5732 134.425C67.1457 133.629 66.2641 132.864 65.9119 132.122V132.122Z" fill="white"/>
<path fill-rule="evenodd" clip-rule="evenodd" d="M29.0595 109.518C30.4746 109.023 31.8855 110.274 31.6362 111.654C31.458 112.641 30.132 114.016 29.2823 114.346C27.8735 114.892 26.4064 113.619 26.6345 112.215C26.8138 111.107 28.1175 109.848 29.0595 109.518ZM27.83 115.997C29.1826 116.213 29.8286 116.165 30.8851 115.47C33.6464 113.654 34.3636 110.428 31.2724 108.323C29.8488 107.355 28.282 107.607 26.9719 108.67C26.7788 108.826 26.1561 109.438 26.0065 109.625C24.6253 111.353 24.5776 113.642 26.3396 114.939L26.1635 117.262C26.5072 117.795 27.3028 118.565 27.7388 118.832L27.83 115.997Z" fill="white"/>
<path fill-rule="evenodd" clip-rule="evenodd" d="M31.749 119.505C32.2465 119.076 33.0888 117.707 33.5375 117.086L35.0555 114.858L34.6651 121.639C35.1404 121.954 35.9848 122.644 36.4823 122.807C36.6743 122.331 38.3313 120.114 38.7429 119.526L41.0194 116.261C40.6353 115.921 40.3012 115.634 39.809 115.425C39.0283 116.251 36.7974 119.847 36.3455 120.255L36.9714 113.374C36.5884 112.998 35.7822 112.401 35.2369 112.143L32.8427 115.43C32.4513 115.991 32.0959 116.467 31.6896 117.043C31.4085 117.44 30.7613 118.271 30.5969 118.667C30.8462 118.917 31.4711 119.369 31.749 119.505V119.505Z" fill="white"/>
<path fill-rule="evenodd" clip-rule="evenodd" d="M64.6735 13.0355L64.8061 13.2848L64.5876 13.0918C64.316 12.677 63.9055 12.2197 63.5968 11.8188L61.5112 9.09028C61.2376 8.74126 60.6923 8.09309 60.5003 7.71543L58.332 7.97852L59.3419 15.9454L60.7719 15.8266C60.9947 14.9567 60.0739 10.9817 60.0251 9.79891C60.4632 10.1851 63.5342 14.5302 64.3309 15.3291L66.4504 15.083L65.4182 7.06512L63.9055 7.35261L64.6735 13.0355Z" fill="white"/>
<path fill-rule="evenodd" clip-rule="evenodd" d="M108.667 25.9625C109.316 26.1874 110.898 27.5644 109.848 28.4725C108.954 29.2448 107.981 28.0789 107.409 27.4414L108.667 25.9625ZM110.824 23.6679C111.402 23.8536 112.838 24.9866 112.057 25.8575C111.621 26.3444 111.084 26.1577 110.699 25.8257C110.389 25.5583 109.977 25.1754 109.781 24.9091L110.824 23.6679ZM105.182 27.1592C105.378 27.6641 107.844 29.999 108.761 30.2939C110.651 30.9007 112.292 29.2363 111.391 27.3575C112.865 27.8774 116.008 26.3402 112.255 22.9455C111.672 22.4183 111.303 21.8242 110.638 21.4603L105.182 27.1592Z" fill="white"/>
<path fill-rule="evenodd" clip-rule="evenodd" d="M20.0551 40.6558C21.3121 37.2112 23.9631 39.2502 21.816 41.6593L20.0551 40.6558ZM17.315 39.055C17.6248 38.427 18.2135 36.9895 19.234 37.4817C20.2068 37.9506 19.2075 39.3764 18.8415 39.9397L17.315 39.055ZM15.2698 39.8198L22.1842 43.8447C22.7209 43.188 24.2739 40.5582 24.2962 39.4591C24.327 37.9061 22.8631 37.0436 21.8659 37.19C21.2888 37.2749 21.1721 37.5751 20.7924 37.7565C21.1573 35.8661 18.8999 35.0153 17.6173 36.0783C17.0689 36.5334 15.6686 38.9309 15.2698 39.8198Z" fill="white"/>
<path fill-rule="evenodd" clip-rule="evenodd" d="M16.8254 88.1752C16.505 89.1692 15.1015 89.8789 13.8116 90.0274C10.8212 90.3733 10.2515 85.974 14.6486 85.6292C16.1316 85.5125 17.2624 86.8184 16.8254 88.1752V88.1752ZM10.0245 88.416C10.4319 90.63 11.9541 92.3199 14.6825 91.6856C16.82 91.1901 18.7995 89.8938 18.3285 87.264C17.9275 85.033 16.349 83.3728 13.6949 83.9616C11.5956 84.4284 9.54609 85.8191 10.0245 88.416V88.416Z" fill="white"/>
<path fill-rule="evenodd" clip-rule="evenodd" d="M11.924 54.886C13.2256 54.5667 14.9271 55.165 15.5477 55.9245C16.4006 56.9663 15.7376 58.635 14.6184 58.9787C13.4091 59.351 11.4594 58.6944 10.9024 58.0441C9.9859 56.9726 10.5714 55.218 11.924 54.886V54.886ZM17.3638 57.3121C17.7329 54.7587 15.798 53.4284 13.5714 53.091C10.8791 52.6837 9.43746 54.0543 9.07042 56.4348C8.662 59.0869 10.477 60.3928 12.7408 60.7736C15.5657 61.2489 17.0074 59.7722 17.3638 57.3121Z" fill="white"/>
<path fill-rule="evenodd" clip-rule="evenodd" d="M51.8138 11.0942C53.4124 10.5521 54.173 11.8941 54.5528 13.0748C55.0524 14.6237 54.7915 15.9009 53.3668 16.304C51.7565 16.7581 51.0553 15.5349 50.6533 14.3266C50.0985 12.6558 50.3828 11.578 51.8138 11.0942V11.0942ZM52.1203 9.55494C49.7187 10.0238 48.1041 11.3966 48.7671 14.2916C50.1388 20.279 57.5856 18.0926 56.4272 13.1204C55.9509 11.0751 54.626 9.0659 52.1203 9.55494Z" fill="white"/>
<path fill-rule="evenodd" clip-rule="evenodd" d="M15.5462 97.8625C14.0727 95.9445 14.9129 94.4073 16.9231 93.6859C19.2622 92.8468 20.2466 94.6227 20.4747 96.6786L21.9312 96.5959C21.6787 93.0473 19.0172 90.513 15.4295 92.4342C11.2807 94.6556 13.9009 98.7462 15.3807 99.8537L19.1222 98.011L17.6763 95.151L16.3959 95.7333L17.0568 97.1878L15.5462 97.8625V97.8625Z" fill="white"/>
<path fill-rule="evenodd" clip-rule="evenodd" d="M90.0497 124.069L88.8754 121.18L87.3181 121.772L90.2672 129.301C90.7393 129.102 91.4256 128.942 91.799 128.633L90.6172 125.51C90.9026 125.232 93.055 124.463 93.5843 124.312C93.8156 124.958 94.5327 127.164 94.9008 127.504L96.4284 126.972L93.4496 119.405L91.9125 120.008L93.0157 122.977L90.0497 124.069V124.069Z" fill="white"/>
<path fill-rule="evenodd" clip-rule="evenodd" d="M117.072 100.226C118.459 97.4055 120.737 99.4391 118.836 101.358L117.072 100.226ZM124.143 101.446C124.497 101.063 124.959 100.366 125.19 99.874L120.999 99.9387C121.133 97.1604 118.788 96.7562 117.742 97.3206C116.795 97.833 115.486 99.8475 114.984 100.834L115.375 101.182C115.488 101.259 115.695 101.38 115.82 101.458L121.728 105.254C121.991 104.902 122.43 104.279 122.586 103.842C122.006 103.316 120.728 102.622 120.066 102.158L120.476 101.391L124.143 101.446V101.446Z" fill="white"/>
<path fill-rule="evenodd" clip-rule="evenodd" d="M129.497 84.3179C129.486 86.7101 127.621 87.4177 125.524 86.4035C122.688 85.0329 124.832 82.2981 125.041 81.8313C124.681 81.5385 124.268 81.2245 123.923 80.9975C121.81 83.5753 122.071 87.1366 125.366 88.2483C129.585 89.672 131.362 86.3356 131.006 82.9367L126.96 81.8631L126.134 84.9077L127.485 85.2653L127.885 83.8183L129.497 84.3179Z" fill="white"/>
<path fill-rule="evenodd" clip-rule="evenodd" d="M73.6827 8.46982C74.7223 8.49847 75.8171 8.58544 75.729 9.70357C75.6431 10.7899 74.5431 10.7114 73.5268 10.6339L73.6827 8.46982ZM72.1552 14.9728L73.2064 14.7723L73.321 12.5297L73.3613 12.0438C73.6509 11.9568 74.0912 11.8985 74.2354 12.1658C74.6184 12.4787 75.729 14.785 75.9635 15.3504L77.8241 15.4979L75.7831 11.7754C77.8963 11.0699 77.7499 8.84218 76.933 8.0179C75.938 7.01329 73.7708 7.02073 72.0936 6.91464L71.4338 14.9781L72.1552 14.9728Z" fill="white"/>
<path fill-rule="evenodd" clip-rule="evenodd" d="M124.977 50.5084L124.293 48.6053L127.79 48.3263C127.513 48.6371 125.407 50.2984 124.977 50.5084ZM120.727 48.8386L122.692 48.7114L123.784 51.4441C123.254 51.9151 122.772 52.2482 122.252 52.6948L122.933 54.3264C123.352 54.1354 124.133 53.3239 124.584 52.9749L127.831 50.2071C128.377 49.7584 128.963 49.2842 129.439 48.7899L128.735 46.8644L120.112 47.1137L120.727 48.8386V48.8386Z" fill="white"/>
<path fill-rule="evenodd" clip-rule="evenodd" d="M55.6263 127.231L57.2961 124.361L57.5358 127.887L55.7409 127.51L55.5107 127.376L55.6263 127.231V127.231ZM54.6546 128.769C55.2179 128.805 57.2652 129.275 57.6206 129.47L57.8137 131.318C57.9527 131.43 57.749 131.323 58.0534 131.456L59.5089 131.802C59.5142 131.572 58.8416 124.238 58.5817 123.467C58.5732 123.445 58.5457 123.427 58.5393 123.378C58.534 123.33 58.5138 123.319 58.5064 123.244L56.6012 122.821C56.2692 123.132 52.184 129.564 51.9941 130.075L53.7572 130.454L54.6546 128.769Z" fill="white"/>
<path fill-rule="evenodd" clip-rule="evenodd" d="M28.6906 27.864L26.1946 25.3265C25.8763 25.4665 25.1369 26.2049 24.9683 26.5688C25.7766 27.1894 28.3458 30.2106 29.0757 30.8736C29.5923 31.3425 30.1524 32.0947 30.5544 32.3026C30.8695 31.996 31.4317 31.4306 31.6927 31.124C30.4335 29.7205 29.6358 29.5285 29.884 28.3393C30.2871 28.1452 32.3631 28.822 32.8988 28.9737C33.757 29.2177 33.705 29.3078 34.245 28.8124C34.4391 28.6342 35.0046 28.021 35.1616 27.9118L30.0506 26.5316L29.6623 22.0623C29.2847 22.3371 28.9558 22.6596 28.6259 22.9534C28.1199 23.4043 28.2833 23.5189 28.3554 24.3696C28.454 25.5323 28.5877 26.7268 28.6906 27.864V27.864Z" fill="white"/>
<path fill-rule="evenodd" clip-rule="evenodd" d="M117.135 41.1334L117.862 42.5603C118.456 42.3757 119.029 42.0022 119.56 41.719C120.284 41.3339 120.44 41.0952 121.172 41.7349C119.763 44.5186 118.423 44.7933 120.06 46.7527L122.73 42.3195L127.16 43.1204C126.571 41.2268 126.189 41.405 125.154 41.2056C124.488 41.0772 122.352 40.777 121.875 40.55C122.784 40.0662 124.047 39.3204 125.014 38.964L124.312 37.4056C123.382 37.6751 121.674 38.7614 120.689 39.2324C120.304 39.417 117.514 40.7749 117.135 41.1334V41.1334Z" fill="white"/>
<path fill-rule="evenodd" clip-rule="evenodd" d="M108.321 114.989C108.025 114.7 106.958 112.116 106.884 111.845C107.403 112.098 109.402 113.33 109.782 113.679L109.427 114.067C109.235 114.228 109.234 114.215 109.039 114.398C108.752 114.666 108.61 114.754 108.321 114.989V114.989ZM105.185 111.377C105.376 112.141 108.092 119.156 108.321 119.409C108.745 119.07 109.294 118.69 109.659 118.246L108.919 116.447L111.086 114.509L112.755 115.573C113.187 115.365 113.104 115.354 113.492 115.005C113.871 114.666 113.886 114.787 114.156 114.362L106.757 110.134L105.185 111.377V111.377Z" fill="white"/>
<path fill-rule="evenodd" clip-rule="evenodd" d="M78.1201 125.577L78.1753 125.197L78.4213 125.441C78.5858 126.426 79.3718 127.508 79.6858 128.497L77.6321 128.739L78.1201 125.577V125.577ZM77.0168 132.178C77.4167 129.971 76.6615 130.12 80.3107 129.903L81.102 131.715L82.9107 131.46L79.1639 123.784C78.5062 123.836 77.595 123.847 77.0147 124.115L75.2124 132.436L77.0168 132.178V132.178Z" fill="white"/>
<path fill-rule="evenodd" clip-rule="evenodd" d="M107.777 19.1785L106.322 18.4454C106.244 18.5388 106.249 18.5239 106.159 18.6502C106.098 18.7372 106.019 18.8719 105.926 19.0162L104.392 21.455C103.769 22.4257 103.004 24.1856 101.413 23.1259C99.8749 22.1022 101.005 20.792 101.68 19.7025C102.299 18.7064 103.145 17.5448 103.654 16.5317L102.262 15.6586L99.5991 19.7853C98.306 21.8263 99.0655 23.3232 100.608 24.297C102.621 25.5679 104.097 25.0386 105.16 23.4229L107.777 19.1785V19.1785Z" fill="white"/>
<path fill-rule="evenodd" clip-rule="evenodd" d="M63.717 49.9744C63.7552 50.579 63.8231 52.2392 64.448 52.2392H76.9294C77.568 52.2392 77.656 50.4772 77.672 49.8821C76.4796 49.6009 75.4581 49.1458 74.3538 49.6731C73.2824 50.1855 71.9181 50.1441 70.6749 50.0624C68.8874 49.9446 68.7824 50.6374 67.2145 50.6862C65.5554 50.7382 64.9359 50.1558 63.717 49.9744V49.9744Z" fill="#5AC4FA"/>
<path fill-rule="evenodd" clip-rule="evenodd" d="M65.0696 73.3829C65.618 74.4852 69.979 77.3123 70.694 77.6083C71.5554 77.1892 72.822 76.2292 73.6801 75.6574C74.7197 74.9636 75.8273 74.3366 76.3036 73.3522L65.0696 73.3829Z" fill="#5AC4FA"/>
<path fill-rule="evenodd" clip-rule="evenodd" d="M94.8647 15.896C95.0037 15.3677 95.532 14.1021 95.8651 13.7818C96.6501 14.1478 97.7161 14.4649 97.2939 15.6361C96.9078 16.7076 95.7038 16.4922 94.8647 15.896V15.896ZM91.4839 19.0181C91.5189 19.0446 91.5561 19.0435 91.5688 19.0838L92.9775 19.7458L94.1964 17.2263C95.1554 17.5255 96.0475 18.2076 97.3131 17.8289C98.7271 17.4067 100.44 14.6983 97.6207 13.0562C97.0542 12.7262 95.3972 11.938 94.7756 11.7757L91.4839 19.0181V19.0181Z" fill="white"/>
<path fill-rule="evenodd" clip-rule="evenodd" d="M70.7014 61.207C70.1646 61.4266 69.6395 61.8838 69.159 62.2031C68.0122 62.9669 65.5883 64.3513 65.0696 65.444L76.3194 65.427C75.7561 64.4478 74.8343 63.9132 73.6982 63.16C72.8495 62.5977 71.5447 61.6037 70.7014 61.207V61.207Z" fill="#5AC4FA"/>
<path fill-rule="evenodd" clip-rule="evenodd" d="M79.1055 15.4847C79.5606 15.7245 83.023 16.3376 83.6669 16.326L83.8855 15.0434C83.3837 14.8313 81.7586 14.583 81.0701 14.479L81.3682 12.4624L84.0924 12.8995L84.3204 11.5045L81.644 11.0303C81.714 10.4807 81.7756 9.76257 82.0142 9.31914L84.7765 9.78696C84.9664 9.38066 85.0333 8.87145 85.0598 8.39725L80.5758 7.60693C80.3424 8.08855 79.1691 14.6276 79.1055 15.4847V15.4847Z" fill="white"/>
<path fill-rule="evenodd" clip-rule="evenodd" d="M109.597 109.664C110.053 109.274 110.418 108.813 110.863 108.316C111.154 107.99 111.791 107.274 111.998 106.93C112.232 107.217 112.241 107.466 112.347 107.903C112.423 108.217 112.518 108.559 112.595 108.866C112.761 109.516 112.918 110.147 113.08 110.788C113.491 112.414 113.522 113.679 114.671 114.151C114.92 113.713 115.302 113.389 115.637 112.967L116.58 111.862C117.022 111.342 118.292 110.062 118.505 109.558C118.018 109.275 117.887 108.934 117.403 108.74L114.891 111.602C114.605 111.147 114.072 108.595 113.878 107.825C113.276 105.449 113.505 105.307 112.365 104.468C112.012 104.704 112.085 104.721 111.813 105.058C111.639 105.273 111.537 105.34 111.35 105.549L109.464 107.758C109.157 108.151 108.78 108.355 108.629 108.852C109.024 109.269 109.214 109.386 109.597 109.664Z" fill="white"/>
<path fill-rule="evenodd" clip-rule="evenodd" d="M20.0679 32.2249C20.2005 32.4667 25.653 36.918 26.4592 37.3105C26.8316 36.5626 28.8227 34.5004 29.2078 33.691C28.8651 33.3483 28.5543 33.0428 28.0865 32.8412C27.8956 33.1786 27.5327 33.604 27.2739 33.9265L26.316 35.0594C25.7867 34.7062 25.1353 34.2468 24.7556 33.8108C25.0961 33.1181 26.0455 32.3543 26.3224 31.6456C26.0392 31.3486 25.6424 31.0558 25.3486 30.8352C24.7068 31.3613 24.0353 32.5802 23.577 32.9165C23.1283 32.6428 22.6711 32.193 22.2362 31.9034C22.4451 31.3762 23.5972 30.1446 23.9981 29.5982C23.7085 29.2354 23.3744 28.9649 22.9469 28.7294C22.3358 29.2397 20.9452 31.2807 20.0679 32.2249V32.2249Z" fill="white"/>
<path fill-rule="evenodd" clip-rule="evenodd" d="M14.627 44.4205C15.0132 44.7462 16.2819 47.1522 16.6755 47.7897C17.7745 49.5698 17.7713 50.271 19.1153 50.6296L21.5976 45.2066L20.3098 44.6497L18.7282 48.1642C18.2805 47.7706 16.0856 43.836 15.7239 43.2058C15.2147 42.3211 15.3654 42.3529 14.2717 41.9657C13.9555 42.3338 11.9612 46.6302 11.8562 47.2179L13.0942 47.7399L14.627 44.4205V44.4205Z" fill="white"/>
<path fill-rule="evenodd" clip-rule="evenodd" d="M104.508 120.044C104.551 120.116 104.822 119.83 104.522 120.281C104.437 120.222 104.443 120.127 104.37 120.043C104.094 119.77 103.481 119.298 103.128 119.029L99.2319 116.154C98.9402 116.346 98.8245 116.427 98.5306 116.625C98.1763 116.861 98.1223 116.841 97.8708 117.21L104.72 122.084C105.19 121.901 105.831 121.308 106.299 121.03L103.915 113.047L103.652 112.978C103.171 113.23 102.931 113.549 102.363 113.787L104.508 120.044V120.044Z" fill="white"/>
<path fill-rule="evenodd" clip-rule="evenodd" d="M47.2061 126.195C47.0735 126.315 47.1404 126.231 47.0332 126.405C46.9653 126.514 46.9706 126.514 46.9144 126.654C46.5548 127.556 46.5781 127.705 47.0184 128.037C47.5467 128.437 48.1683 128.733 48.8939 128.933C50.7227 129.439 52.0678 128.725 52.2885 127.109C52.5134 125.465 50.7726 124.571 50.2178 123.757C49.6227 122.886 50.3546 121.355 52.8857 123.494C53.2687 123.069 53.5848 122.952 53.815 122.329C53.3822 122.112 53.1032 121.771 52.6004 121.5C51.1237 120.699 49.2206 120.533 48.5152 122.242C47.3483 125.067 51.3942 125.581 50.3472 127.538C49.001 127.884 47.8108 126.895 47.2061 126.195V126.195Z" fill="white"/>
<path fill-rule="evenodd" clip-rule="evenodd" d="M86.3787 123.922C86.5336 123.573 86.6493 122.877 86.4987 122.521C81.9064 121.874 81.1023 125.53 82.9661 126.811C83.9739 127.505 86.2929 127.34 86.5029 128.238C86.8678 129.794 84.1415 129.492 83.1072 129.418L83.5496 130.922C86.871 131.587 89.5326 128.766 87.5775 126.773C86.5273 125.701 85.11 126.132 84.1076 125.55C83.3788 125.126 83.6992 124.321 84.2985 124.084C84.9477 123.826 85.6733 123.935 86.3787 123.922Z" fill="white"/>
<path fill-rule="evenodd" clip-rule="evenodd" d="M88.6525 16.3415C87.144 16.4975 86.4428 15.5395 85.5995 14.972L85.0691 16.524C86.0111 17.0417 87.0528 17.9688 88.7289 17.8118C90.005 17.6919 91.0934 16.4656 90.6871 14.9921C90.3455 13.7552 88.7755 12.9787 88.5188 12.2074C88.2069 11.2728 89.0259 10.9588 89.8544 11.2505C90.3922 11.4404 91.016 11.9708 91.3575 12.217C91.5114 12.0759 92.1181 11.4065 92.2401 11.1784C91.331 9.85237 87.9173 8.67481 86.9562 10.9683C85.7193 13.9185 90.1811 14.4193 88.6525 16.3415V16.3415Z" fill="white"/>
<path fill-rule="evenodd" clip-rule="evenodd" d="M16.4822 82.9356C16.6742 81.3804 16.8322 79.8697 15.8181 78.8301C14.7838 77.7682 13.2 78.0864 12.4341 79.0603C11.7287 79.9578 11.7011 82.1431 10.7697 82.3256C9.11167 82.6523 9.82666 79.3669 9.89879 78.8365L8.3415 79.1706C7.51938 83.3365 10.4695 85.053 12.2654 83.4628C13.2 82.6364 13.078 80.9772 13.6699 80.1742C14.0752 79.6247 14.9005 79.7371 15.1158 80.4956C15.3184 81.2117 15.1402 81.9734 15.0511 82.6629L16.4822 82.9356V82.9356Z" fill="white"/>
<path fill-rule="evenodd" clip-rule="evenodd" d="M37.9145 23.3479L38.6337 24.6591C41.0757 24.4214 43.9961 21.8733 41.6379 19.74C40.3735 18.5964 38.5977 19.776 37.5114 19.2912C36.7285 18.9422 37.1093 18.1413 37.5485 17.8146C38.0598 17.4358 38.7228 17.3234 39.4251 17.1632L39.2256 15.7639C35.1044 16.1352 34.5613 19.7622 36.6447 20.7615C37.9749 21.3991 40.4361 20.316 40.8222 21.4023C41.2921 22.7273 38.8777 23.0243 37.9145 23.3479V23.3479Z" fill="white"/>
<path fill-rule="evenodd" clip-rule="evenodd" d="M131.607 58.3444C131.78 56.8624 131.717 55.3337 130.873 54.3875C129.94 53.3425 128.18 53.5558 127.482 54.5445C126.867 55.4122 126.689 57.7005 126.046 57.9466C125.223 58.2638 124.873 57.5328 124.765 56.8772C124.625 56.036 124.784 55.3645 124.876 54.5519L123.415 54.9062C122.889 56.053 123.463 57.9508 124.048 58.8069C124.701 59.7617 126.385 60.0672 127.416 59.052C128.347 58.1354 128.238 56.1686 128.8 55.6149C129.343 55.0802 129.967 55.4239 130.169 56.053C130.418 56.8284 130.155 57.431 130.233 58.1534L131.607 58.3444V58.3444Z" fill="white"/>
<path fill-rule="evenodd" clip-rule="evenodd" d="M70.7122 80.5987C69.9039 80.9329 66.2876 83.3919 65.5991 84.3329H75.7988C75.3257 83.5245 71.6754 81.0549 70.7122 80.5987Z" fill="#5AC4FA"/>
<path fill-rule="evenodd" clip-rule="evenodd" d="M70.7037 58.3708C71.6149 57.9146 75.4232 55.4079 75.7977 54.6377H65.5991C66.3459 55.6084 69.871 58.0186 70.7037 58.3708Z" fill="#5AC4FA"/>
<path fill-rule="evenodd" clip-rule="evenodd" d="M40.2495 14.4967L40.9295 15.7251L42.8793 14.7683L45.8803 20.6835L47.3782 19.9261L44.3506 13.9493L46.3067 13.0009C46.2007 12.793 46.1148 12.6095 46.0097 12.4058L45.6215 11.7682L40.2495 14.4967V14.4967Z" fill="white"/>
<path fill-rule="evenodd" clip-rule="evenodd" d="M16.8287 88.2689C17.2657 86.9121 16.1349 85.6062 14.6519 85.7229C10.2548 86.0677 10.8245 90.467 13.8149 90.1212C15.1048 89.9726 16.5083 89.2629 16.8287 88.2689V88.2689Z" fill="#58C0F9"/>
<path fill-rule="evenodd" clip-rule="evenodd" d="M63.6105 125.514C61.4348 126.346 61.77 131.992 65.0362 130.71C67.1112 129.895 66.9478 124.236 63.6105 125.514Z" fill="#58C0F9"/>
<path fill-rule="evenodd" clip-rule="evenodd" d="M110.787 32.8772C111.318 33.5137 111.798 34.0324 112.352 34.6944L113.964 36.5625C114.372 36.2697 114.668 36.0639 114.987 35.6438C114.649 35.193 114.325 34.8705 113.963 34.4069C113.601 33.9423 113.204 33.6569 112.941 33.0819C113.59 32.717 114.184 32.0465 114.771 31.5554L117.933 28.9383C117.74 28.4567 117.176 27.8361 116.818 27.5931C116.155 28.0737 111.093 32.3436 110.787 32.8772V32.8772Z" fill="white"/>
<path fill-rule="evenodd" clip-rule="evenodd" d="M11.9485 54.9964C10.596 55.3285 10.0104 57.0831 10.927 58.1545C11.4839 58.8048 13.4336 59.4615 14.6429 59.0891C15.7621 58.7454 16.4251 57.0767 15.5722 56.035C14.9517 55.2754 13.2501 54.6771 11.9485 54.9964Z" fill="#58C0F9"/>
<path fill-rule="evenodd" clip-rule="evenodd" d="M29.0592 109.635C28.1172 109.965 26.8135 111.224 26.6342 112.332C26.4061 113.736 27.8732 115.009 29.282 114.463C30.1317 114.133 31.4577 112.758 31.6359 111.771C31.8852 110.391 30.4743 109.14 29.0592 109.635Z" fill="#58C0F9"/>
<path fill-rule="evenodd" clip-rule="evenodd" d="M51.8007 10.9892C50.3696 11.4729 50.0854 12.5507 50.6402 14.2216C51.0422 15.4299 51.7434 16.653 53.3537 16.1989C54.7783 15.7958 55.0393 14.5186 54.5397 12.9698C54.1599 11.789 53.3993 10.4471 51.8007 10.9892V10.9892Z" fill="#58C0F9"/>
<path fill-rule="evenodd" clip-rule="evenodd" d="M20.3412 104.074C21.2227 103.47 24.6724 101.033 24.9716 100.632C24.6671 100.276 24.264 99.7094 24.0561 99.3508C23.5193 99.5959 21.3999 101.203 20.7252 101.691C19.6866 102.44 18.5134 103.193 17.5056 104.035L20.3507 108.075C20.7177 107.873 21.1654 107.547 21.4688 107.286C21.0402 106.437 20.1735 105.567 19.6484 104.637L20.3412 104.074V104.074Z" fill="white"/>
<path fill-rule="evenodd" clip-rule="evenodd" d="M69.5469 126.034C69.3464 127.005 69.6455 131.092 69.6826 132.444L74.6854 132.269L74.5762 130.886L71.3545 130.949L71.0893 124.33L70.2799 124.303L69.479 124.42L69.5469 126.034V126.034Z" fill="white"/>
<path fill-rule="evenodd" clip-rule="evenodd" d="M127.714 94.2512L126.449 93.6996L125.105 96.6742L118.979 94.0019L118.361 95.4627C118.693 95.7735 124.894 98.519 125.704 98.799L127.714 94.2512V94.2512Z" fill="white"/>
<path fill-rule="evenodd" clip-rule="evenodd" d="M8.06641 70.0286C8.26902 70.5591 8.44298 70.4339 8.64029 70.7691C8.90868 71.2253 8.64455 71.4056 8.86838 71.8904C9.3362 72.0134 9.52819 71.8119 9.96631 72.0877C10.1774 72.2203 10.2867 72.4442 10.5943 72.6415C10.902 72.4516 11.0653 72.1811 11.2658 72.0686C11.7538 71.7949 11.9182 72.0792 12.3616 71.8458C12.595 71.4024 12.3107 71.238 12.5844 70.75C12.6968 70.5495 12.9673 70.3861 13.1572 70.0785C12.9854 69.8111 12.6459 69.5555 12.5558 69.373C12.3733 68.9975 12.5059 68.7344 12.4062 68.3525C11.9224 68.1329 11.7379 68.396 11.2838 68.1265C10.9497 67.9282 11.077 67.7531 10.5445 67.5505C9.44759 68.3419 10.5413 68.0321 8.81003 68.2942C8.53741 70.0286 8.86413 68.9222 8.06641 70.0286Z" fill="white"/>
<path fill-rule="evenodd" clip-rule="evenodd" d="M131.36 71.2561C131.409 70.8562 131.278 71.1214 131.483 70.7819C131.709 70.4063 131.868 70.6058 132.057 70.0117C131.147 69.3572 131.492 69.4993 131.316 68.2847C129.889 68.1415 130.415 68.4799 129.57 67.558C129.068 67.7638 129.154 67.9569 128.835 68.1362C128.43 68.3642 128.057 68.1818 127.713 68.378C127.615 68.762 127.754 68.9944 127.568 69.3805C127.491 69.5407 127.151 69.8271 126.99 70.0531C127.205 70.5177 127.448 70.4965 127.586 70.8286C127.848 71.4608 127.385 71.8003 128.015 71.917C129.426 72.178 128.147 71.6465 129.519 72.6416C129.896 72.4379 129.981 72.1801 130.23 72.0506C130.587 71.8661 130.867 71.9753 131.255 71.9128L131.36 71.2561Z" fill="white"/>
<path fill-rule="evenodd" clip-rule="evenodd" d="M132.533 62.2499L132.331 60.5674C131.111 60.683 125.005 61.3492 124.338 61.677C124.359 62.1989 124.404 62.8959 124.611 63.2937L132.533 62.2499V62.2499Z" fill="white"/>
<path fill-rule="evenodd" clip-rule="evenodd" d="M39.773 124.906C40.4858 123.825 41.1679 122.525 41.8055 121.406C42.234 120.655 43.611 118.499 43.768 117.881L42.3083 117.11L38.2942 124.076L39.773 124.906V124.906Z" fill="white"/>
<path fill-rule="evenodd" clip-rule="evenodd" d="M31.1848 20.8933L33.6162 24.0535C34.0744 24.6561 35.7877 26.6844 36.0136 27.201C36.5164 27.0398 37.085 26.5009 37.4139 26.1869C37.2802 25.9238 32.8747 20.191 32.445 19.8876C32.0303 20.1189 31.4468 20.5878 31.1848 20.8933Z" fill="white"/>
<path fill-rule="evenodd" clip-rule="evenodd" d="M114.855 37.8614C115.052 38.2783 115.532 38.9074 115.831 39.1779C116.246 38.9678 117.068 38.3292 117.46 38.0449C118.03 37.6322 118.501 37.2684 119.059 36.8791C119.661 36.459 120.085 36.1598 120.669 35.7206C121.145 35.361 121.937 34.9038 122.294 34.4932C122.154 34.1771 121.665 33.4982 121.366 33.1841C120.973 33.3072 121.005 33.3687 120.559 33.6859L114.855 37.8614V37.8614Z" fill="white"/>
<path fill-rule="evenodd" clip-rule="evenodd" d="M22.4212 110.729C22.8519 110.513 23.5647 109.761 24.0103 109.413C24.5428 108.997 24.9607 108.59 25.4922 108.13L28.5123 105.527C28.2174 105.103 27.7878 104.649 27.4568 104.25L22.7925 108.197C22.2886 108.652 21.6977 109.072 21.3508 109.507C21.5651 109.834 22.1422 110.518 22.4212 110.729V110.729Z" fill="white"/>
<path fill-rule="evenodd" clip-rule="evenodd" d="M123.746 79.4884L131.705 80.8993L131.983 79.2571L124.037 77.8069L123.746 79.4884Z" fill="white"/>
<path fill-rule="evenodd" clip-rule="evenodd" d="M120.835 89.8485L128.321 92.8316L128.911 91.2425L121.424 88.2816L120.835 89.8485Z" fill="white"/>
<path fill-rule="evenodd" clip-rule="evenodd" d="M113.016 103.567C115.12 105.248 117.179 106.841 119.284 108.472C119.653 108.191 120.087 107.57 120.337 107.176L113.991 102.255C113.717 102.491 113.161 103.243 113.016 103.567V103.567Z" fill="white"/>
<path fill-rule="evenodd" clip-rule="evenodd" d="M107.437 27.4014C108.009 28.039 108.982 29.2049 109.876 28.4326C110.926 27.5245 109.344 26.1475 108.695 25.9226L107.437 27.4014Z" fill="#58C0F9"/>
<path fill-rule="evenodd" clip-rule="evenodd" d="M20.0857 40.6598L21.8466 41.6634C23.9937 39.2542 21.3428 37.2153 20.0857 40.6598Z" fill="#58C0F9"/>
<path fill-rule="evenodd" clip-rule="evenodd" d="M94.8645 15.9293C95.7036 16.5255 96.9076 16.7408 97.2937 15.6693C97.7159 14.4982 96.6499 14.181 95.8649 13.815C95.5318 14.1354 95.0035 15.401 94.8645 15.9293V15.9293Z" fill="#58C0F9"/>
<path fill-rule="evenodd" clip-rule="evenodd" d="M73.5671 10.5085C74.5834 10.5859 75.6834 10.6644 75.7694 9.5781C75.8574 8.45998 74.7626 8.373 73.723 8.34436L73.5671 10.5085Z" fill="#58C0F9"/>
<path fill-rule="evenodd" clip-rule="evenodd" d="M20.8917 99.594C21.5972 99.5707 23.0812 99.3776 23.6456 99.0742C23.5777 98.6414 23.1332 98.0102 22.9062 97.6803L20.2446 98.5799L20.8917 99.594Z" fill="white"/>
<path fill-rule="evenodd" clip-rule="evenodd" d="M117.04 100.336L118.804 101.467C120.705 99.5484 118.426 97.5148 117.04 100.336Z" fill="#58C0F9"/>
<path fill-rule="evenodd" clip-rule="evenodd" d="M10.9155 50.2183C11.813 50.5832 12.5322 51.1741 13.3204 51.5327L13.6779 50.3446C13.1019 49.9817 12.092 48.8456 11.3547 48.678L10.9155 50.2183V50.2183Z" fill="white"/>
<path fill-rule="evenodd" clip-rule="evenodd" d="M109.844 24.8988C110.04 25.165 110.452 25.548 110.762 25.8153C111.147 26.1474 111.684 26.3341 112.12 25.8472C112.901 24.9762 111.465 23.8432 110.887 23.6576L109.844 24.8988Z" fill="#58C0F9"/>
<path fill-rule="evenodd" clip-rule="evenodd" d="M17.3005 39.1549L18.827 40.0396C19.193 39.4763 20.1923 38.0506 19.2195 37.5817C18.199 37.0894 17.6103 38.5269 17.3005 39.1549Z" fill="#58C0F9"/>
<path fill-rule="evenodd" clip-rule="evenodd" d="M108.344 115.114C108.633 114.879 108.774 114.791 109.062 114.522C109.257 114.34 109.258 114.353 109.45 114.191L109.804 113.804C109.425 113.455 107.426 112.223 106.907 111.97C106.98 112.241 108.048 114.825 108.344 115.114V115.114Z" fill="#58C0F9"/>
<path fill-rule="evenodd" clip-rule="evenodd" d="M78.1252 125.432L77.6372 128.595L79.6909 128.353C79.3769 127.363 78.5909 126.281 78.4264 125.297C78.1793 125.394 78.2716 125.303 78.1252 125.432V125.432Z" fill="#58C0F9"/>
<path fill-rule="evenodd" clip-rule="evenodd" d="M124.978 50.4162C125.408 50.2061 127.513 48.5448 127.79 48.234L124.294 48.513L124.978 50.4162Z" fill="#58C0F9"/>
<path fill-rule="evenodd" clip-rule="evenodd" d="M55.6389 127.105L55.7535 127.384L57.5484 127.761L57.3087 124.236L55.6389 127.105Z" fill="#58C0F9"/>
<path fill-rule="evenodd" clip-rule="evenodd" d="M71.7062 46.688C72.1974 47.0094 72.7575 47.0338 72.9325 46.3623C72.7713 46.0568 72.644 45.8754 72.1783 45.9242C71.7084 45.9741 71.5779 46.2138 71.7062 46.688V46.688Z" fill="#58C0F9"/>
<path fill-rule="evenodd" clip-rule="evenodd" d="M72.1909 14.8884C72.454 15.0677 72.7288 15.0603 73.1096 15.0677L73.2422 14.6879L72.1909 14.8884Z" fill="#89E3FC"/>
<path fill-rule="evenodd" clip-rule="evenodd" d="M69.5162 126.034L69.4483 124.42L70.2493 124.303L69.3868 124.34C69.3529 124.693 69.3656 124.939 69.3826 125.292L69.5162 126.034V126.034Z" fill="#A8EBFC"/>
<path fill-rule="evenodd" clip-rule="evenodd" d="M73.3254 12.3346L73.51 11.8551L74.2399 11.9707C74.0956 11.7034 73.6553 11.7617 73.3657 11.8487L73.3254 12.3346Z" fill="#82E1FB"/>
<path fill-rule="evenodd" clip-rule="evenodd" d="M78.1443 125.489C78.291 125.36 78.1985 125.451 78.4462 125.353L78.1996 125.109L78.1443 125.489Z" fill="#89E3FC"/>
<path fill-rule="evenodd" clip-rule="evenodd" d="M71.8665 48.8872L71.7379 48.7341C71.5614 48.8925 71.5316 48.4332 71.6145 49.0053L71.8665 48.8872Z" fill="#A8EBFC"/>
<path fill-rule="evenodd" clip-rule="evenodd" d="M104.512 119.895L104.374 119.894C104.447 119.979 104.441 120.074 104.526 120.133C104.827 119.681 104.555 119.967 104.512 119.895Z" fill="#89E3FC"/>
<path fill-rule="evenodd" clip-rule="evenodd" d="M103.935 113.098C103.884 113.002 103.671 112.652 103.671 113.029L103.935 113.098Z" fill="#91E5FC"/>
<path fill-rule="evenodd" clip-rule="evenodd" d="M55.7344 127.473L55.6195 127.193L55.5037 127.339L55.7344 127.473Z" fill="#62D6FB"/>
<path fill-rule="evenodd" clip-rule="evenodd" d="M64.5496 12.9459L64.7691 13.1399L64.6359 12.8894L64.5496 12.9459Z" fill="#A1E9FC"/>
</svg>
