<svg width="398" height="68" viewBox="0 0 398 68" fill="none" xmlns="http://www.w3.org/2000/svg">
<path d="M393.157 41.9431H388.011L388.018 8.51598L378.476 33.689C376.396 38.6731 369.611 37.9084 368.168 33.689L358.524 10.1095L358.55 19.1284V32.5438V32.8225V33.1013V33.3839V33.463V37.9084C358.52 40.5568 357.134 41.8301 354.516 41.9431H350.172V34.9586V4.72986L350.176 4.63191L350.179 4.54149L350.187 4.44354L350.194 4.34936L350.21 4.25518L350.225 4.16476L350.243 4.06682L350.262 3.9764L350.285 3.88222L350.311 3.78804H350.315L350.341 3.69762L350.372 3.60721L350.405 3.51679L350.443 3.42261L350.481 3.33596L350.518 3.24555L350.564 3.15513L350.609 3.06848L350.654 2.98184L350.703 2.89519L350.752 2.81231H350.756L350.805 2.72566L350.861 2.64278L350.918 2.56367L350.978 2.48079L351.038 2.40167L351.099 2.32256L351.163 2.24721L351.23 2.17187L351.298 2.09652L351.366 2.02118L351.434 1.9496L351.505 1.88179L351.581 1.81021L351.656 1.7424L351.732 1.67835L351.807 1.61431L351.886 1.55403L351.965 1.49376L352.048 1.43348L352.131 1.37697L352.214 1.32046L352.297 1.26772L352.383 1.21874L352.466 1.16977L352.553 1.12079L352.639 1.07559L352.73 1.03415L352.82 0.996474L352.911 0.955034L352.997 0.921128H353.001L353.092 0.887222L353.182 0.857084L353.276 0.826946L353.367 0.800575L353.461 0.777971L353.555 0.755367L353.645 0.740298H353.649L353.739 0.721462L353.837 0.71016L353.932 0.698858L354.026 0.695091L354.12 0.687556H354.214H355.209H363.783L373.627 26.9908L383.151 2.92533C383.897 1.43348 385.095 0.680021 386.756 0.687556H393.179H397.191V37.9084C397.18 40.6698 396.065 41.9356 393.157 41.9431Z" fill="white"/>
<path d="M322.937 42.6683C317.023 42.6683 312.212 40.7432 308.49 36.9044C304.768 33.0542 302.914 28.0437 302.914 21.8691C302.914 15.3479 304.798 10.0737 308.576 6.05027C312.359 2.02303 317.358 0 323.593 0C329.485 0 334.247 1.93639 337.882 5.78279C341.514 9.64426 343.333 14.7301 343.333 21.0328C343.333 27.5163 341.446 32.7491 337.675 36.716C333.915 40.683 328.995 42.6683 322.937 42.6683ZM323.337 8.00172C320.078 8.00172 317.486 9.22233 315.572 11.6748C313.655 14.1198 312.694 17.3521 312.694 21.3794C312.694 25.4631 313.655 28.6954 315.572 31.0801C317.486 33.4573 319.999 34.644 323.103 34.644C326.313 34.644 328.848 33.4874 330.732 31.1781C332.608 28.8612 333.55 25.659 333.55 21.5564C333.55 17.273 332.638 13.9427 330.822 11.5693C328.995 9.19219 326.501 8.00172 323.337 8.00172Z" fill="white"/>
<path d="M296.786 41.3347C294.059 42.2577 291.154 42.6683 287.229 42.6683C280.903 42.6683 275.923 40.8111 272.303 37.089C268.667 33.3669 266.863 28.4091 266.863 22.2119C266.863 15.6154 268.893 10.2621 272.969 6.15575C277.046 2.05317 282.339 0 288.837 0C291.278 0 292.97 0.154459 294.74 0.463377C297.178 0.885313 298.967 1.71035 299.02 4.65637V7.0712C298.775 9.55385 296.707 9.31651 295.577 8.96238C293.705 8.38222 291.73 8.00172 289.587 8.00172C285.714 8.00172 282.583 9.22233 280.206 11.656C277.829 14.0897 276.642 17.3898 276.642 21.5564C276.642 25.5422 277.761 28.7218 280.01 31.0914C282.248 33.4573 285.273 34.644 289.074 34.644C291.644 34.644 293.316 33.9885 295.682 33.4611C297.076 33.1484 299.024 33.7851 299.02 35.2769V37.4506C298.945 39.873 298.206 40.8563 296.786 41.3347Z" fill="white"/>
<path d="M242.204 42.6683C236.293 42.6683 231.482 40.7432 227.76 36.9044C224.038 33.0542 222.181 28.0437 222.181 21.8691C222.181 15.3479 224.068 10.0737 227.847 6.05027C231.629 2.02303 236.628 0 242.863 0C248.755 0 253.517 1.93639 257.149 5.78279C260.784 9.64426 262.6 14.7301 262.6 21.0328C262.6 27.5163 260.716 32.7491 256.945 36.716C253.185 40.683 248.265 42.6683 242.204 42.6683ZM242.607 8.00172C239.348 8.00172 236.756 9.22233 234.839 11.6748C232.925 14.1198 231.961 17.3521 231.961 21.3794C231.961 25.4631 232.925 28.6954 234.839 31.0801C236.756 33.4573 239.269 34.644 242.37 34.644C245.583 34.644 248.118 33.4874 250.002 31.1781C251.878 28.8612 252.82 25.659 252.82 21.5564C252.82 17.273 251.908 13.9427 250.089 11.5693C248.265 9.19219 245.768 8.00172 242.607 8.00172Z" fill="white"/>
<path d="M217.979 8.24845H203.425V18.3825H212.757C214.78 18.3825 216.799 20.4055 216.799 22.4248V25.917H203.425V41.9431H198.166C196.147 41.9431 194.124 39.9201 194.124 37.9008V0.6875H213.936C215.955 0.6875 217.979 2.71053 217.979 4.7298V8.24845Z" fill="white"/>
<path d="M179.704 41.9633C178.178 41.9369 176.072 42.3024 173.736 39.5334L158.313 16.0255C157.322 14.5111 156.625 13.3733 156.241 12.6086H156.132C156.279 14.0627 156.358 16.2892 156.358 19.2767V38.7988C156.358 40.2341 155.356 41.952 153.988 41.952H151.622H147.58V37.9097V35.476V4.7387C147.987 1.64199 151.072 0.62859 153.114 0.696402C155.36 0.62859 157.273 0.903603 159.157 3.0924L173.966 25.8054C174.712 26.9469 175.398 28.0658 176.038 29.1733H176.155C176.001 28.2202 175.921 26.3253 175.921 23.5073V4.7048C175.921 2.71944 177.941 0.696402 179.975 0.696402H184.695L184.699 4.7387V30.3374V37.9097C184.586 40.916 181.587 41.9972 179.704 41.9633Z" fill="white"/>
<path d="M134.169 41.9431H128.914C128.914 29.5374 128.914 17.1317 128.914 4.7298C128.914 2.70677 130.933 0.6875 132.953 0.6875H138.212V37.9121C138.212 39.9201 136.192 41.9431 134.169 41.9431Z" fill="white"/>
<path d="M118.842 41.9431H93.6542C90.0414 41.9431 88.5156 37.7727 90.9116 34.8455L110.754 8.24845H91.1339V4.73734C91.1339 2.71053 93.1532 0.6875 95.1988 0.6875H118.142H122.783C122.937 3.80305 122.308 6.52303 120.703 8.7608L102.104 34.3972H122.843V37.9121C122.843 39.9201 120.824 41.9431 118.842 41.9431Z" fill="white"/>
<path d="M84.1724 24.0786C84.1724 36.4617 78.3971 42.6589 66.8617 42.6589C55.654 42.6589 50.0558 36.6086 50.0596 24.5118L50.0633 4.7298C50.0633 2.70677 51.2199 0.6875 54.1056 0.6875H59.3761V24.6173C59.3761 31.2967 61.9906 34.6345 67.2045 34.6345C72.3205 34.6345 74.8822 31.4135 74.8822 24.9639V4.7298C74.8822 2.70677 76.9429 0.6875 78.917 0.6875H84.1724V24.0786Z" fill="white"/>
<path fill-rule="evenodd" clip-rule="evenodd" d="M40.9504 0.75H5.37969C2.4186 0.75 0 3.17237 0 6.12969V7.32769C0.971961 7.47461 2.05317 7.76093 3.2248 8.1791C6.90921 9.48635 11.4978 12.0707 16.4254 15.6383C20.43 12.6546 24.1182 10.5224 27.1056 9.45998C30.0253 8.42774 32.2932 8.41267 33.559 9.63327C34.9981 11.0083 34.9378 13.766 33.657 17.3751C32.3497 21.0632 29.7654 25.6518 26.1977 30.5794C29.1814 34.584 31.3137 38.2684 32.3761 41.2597C32.4288 41.4066 32.4778 41.5573 32.5268 41.7042H35.5745C38.5318 41.7042 40.9504 39.2856 40.9504 36.3245V0.75ZM0 23.3387V36.3245C0 38.3363 1.11889 40.0993 2.76519 41.0223C4.02347 41.06 5.54168 40.7511 7.27087 40.1295C10.7895 38.8637 15.1709 36.3019 19.9629 32.7155C20.0005 32.6853 20.0571 32.6929 20.0872 32.7305C20.1136 32.7644 20.1098 32.8172 20.0759 32.8473C18.7272 34.132 17.3823 35.3526 16.0562 36.4941C14.7037 37.6544 13.3701 38.7394 12.0704 39.7339H12.0666L11.3094 40.3103H11.3056C10.6539 40.8001 10.0097 41.2634 9.37302 41.7042H25.9792C27.2074 40.2877 27.1358 37.79 25.9792 34.5652C24.7134 31.0428 22.1517 26.6614 18.5614 21.8694C18.5351 21.8318 18.5426 21.779 18.5803 21.7489C18.6142 21.7225 18.6669 21.7263 18.6933 21.7564H18.6971C19.9817 23.1089 21.2023 24.4538 22.3438 25.7799C23.4702 27.0947 24.5288 28.3906 25.5008 29.6564C27.1848 26.3676 28.2735 23.4517 28.6615 21.0971C29.0383 18.8217 28.7595 17.0737 27.7386 16.0301C26.3597 14.6249 23.7867 14.6438 20.4149 15.8568C16.8925 17.1226 12.5112 19.6844 7.71918 23.2709C7.6815 23.301 7.62876 23.2935 7.59862 23.2558C7.57225 23.2181 7.57602 23.1691 7.60616 23.139C8.95485 21.8544 10.2998 20.6338 11.6259 19.496C12.9406 18.3658 14.2366 17.311 15.5062 16.3353C12.2173 14.6475 9.30144 13.5626 6.94688 13.1745C4.67144 12.7978 2.92342 13.0766 1.87988 14.0975C0.470911 15.4763 0.493515 18.0494 1.70658 21.4211C2.97239 24.9435 5.53415 29.3249 9.12061 34.1131C9.15075 34.1546 9.14321 34.2073 9.10177 34.2374C9.06787 34.2638 9.01889 34.26 8.98875 34.2261C7.70034 32.8775 6.48351 31.5325 5.34202 30.2064C4.18169 28.8578 3.09671 27.5204 2.09838 26.2207L1.52575 25.4597L1.52199 25.4559C0.98703 24.7401 0.478446 24.0319 0 23.3387Z" fill="white"/>
<path d="M155.259 67.2554L157.399 57.2532H163.351L163.031 58.7112H158.548L158.024 61.1599H162.462L162.153 62.6028H157.73L157.044 65.8125H161.471L161.162 67.2554H155.259ZM166.067 65.1419L167.472 64.396C167.853 65.5036 168.354 66.0574 168.979 66.0574C169.413 66.0574 169.789 65.9331 170.121 65.6882C170.452 65.4433 170.663 65.1156 170.761 64.7049C170.776 64.6258 170.784 64.5316 170.784 64.4224C170.784 64.1361 170.588 63.782 170.192 63.3525C170.064 63.2131 169.804 62.9381 169.42 62.5274L168.648 61.7137C168.407 61.4575 168.248 61.2541 168.169 61.1072C167.988 60.7568 167.898 60.3914 167.898 60.0147C167.898 59.9544 167.906 59.8677 167.924 59.7547C167.943 59.6417 167.951 59.5588 167.951 59.4985C168.037 59.1633 168.181 58.8393 168.388 58.5304C168.802 57.9201 169.341 57.4868 170.011 57.2306C170.366 57.0912 170.705 57.0234 171.029 57.0234C171.616 57.0234 172.117 57.2043 172.539 57.5659C172.863 57.8485 173.187 58.2855 173.504 58.8769L172.125 59.7811L171.726 59.1256C171.564 58.8581 171.341 58.6735 171.055 58.568L170.708 58.5191C170.305 58.5191 169.989 58.6358 169.759 58.8656C169.533 59.0992 169.42 59.4157 169.42 59.8188C169.42 60.0071 169.544 60.2633 169.793 60.5798C169.853 60.6589 169.94 60.7418 170.049 60.8359L170.761 61.4312C171.824 62.324 172.359 63.2357 172.359 64.1625C172.359 65.1495 171.903 65.9858 170.991 66.6639C170.253 67.214 169.514 67.489 168.776 67.489C168.045 67.489 167.457 67.2705 167.009 66.8297C166.64 66.468 166.327 65.9067 166.067 65.1419ZM180.616 58.6999H178.488L178.797 57.2532H184.523L184.21 58.6999H182.093L180.262 67.2554H178.786L180.616 58.6999ZM189.093 65.3228C189.326 65.3228 189.522 65.4057 189.681 65.5752C189.839 65.7409 189.918 65.9406 189.918 66.1742C189.918 66.2684 189.914 66.3362 189.907 66.3776C189.854 66.6526 189.699 66.9013 189.447 67.116C189.195 67.3307 188.927 67.4362 188.641 67.4362C188.403 67.4362 188.204 67.3496 188.042 67.18C187.884 67.0068 187.804 66.7996 187.804 66.5584C187.804 66.4756 187.808 66.4153 187.819 66.3776C187.887 66.0951 188.046 65.8502 188.294 65.6392C188.543 65.4283 188.81 65.3228 189.093 65.3228ZM201.529 60.7493H200.108C200.334 59.6831 200.813 58.8054 201.555 58.1197C202.335 57.3889 203.254 57.0234 204.313 57.0234C204.723 57.0234 205.115 57.1063 205.484 57.2683C206.208 57.5848 206.656 58.131 206.837 58.9033C206.882 59.0841 206.901 59.2687 206.901 59.4571C206.901 60.6702 206.302 61.8041 205.096 62.8627L204.117 63.7254L201.694 65.8238H205.74L205.447 67.2554H198.164L204.222 61.8983C204.448 61.6986 204.663 61.4726 204.866 61.2127C205.243 60.7418 205.432 60.2558 205.432 59.7547C205.432 59.3441 205.292 59.0201 205.013 58.7865C204.735 58.5567 204.384 58.4399 203.962 58.4399C203.122 58.4399 202.452 58.8317 201.954 59.6153L201.721 60.0636C201.713 60.0749 201.649 60.301 201.529 60.7493ZM211.256 62.2562C211.538 60.8359 212.005 59.6794 212.661 58.7752C213.501 57.6074 214.556 57.0234 215.818 57.0234C216.85 57.0234 217.592 57.4491 218.048 58.3005C218.316 58.7978 218.448 59.3403 218.448 59.9242C218.448 60.8246 218.38 61.6007 218.24 62.2562C217.958 63.5974 217.468 64.7539 216.771 65.7334C215.939 66.905 214.876 67.489 213.588 67.489C212.326 67.489 211.523 66.9088 211.177 65.7485C211.067 65.3717 211.011 64.8067 211.011 64.0607C211.011 63.7744 211.037 63.473 211.086 63.1453C211.113 62.9833 211.169 62.6857 211.256 62.2562ZM212.669 62.2826C212.631 62.4107 212.586 62.648 212.533 62.9908C212.446 63.5559 212.401 63.9816 212.401 64.2642C212.401 65.5036 212.906 66.1214 213.912 66.1214C214.812 66.1214 215.562 65.5262 216.153 64.332C216.602 63.4354 216.88 62.4408 216.99 61.3407C217.024 61.0055 217.042 60.7304 217.042 60.5157C217.042 59.1331 216.545 58.4399 215.55 58.4399C214.737 58.4399 214.081 58.8581 213.592 59.6907C213.294 60.2068 213.102 60.6287 213.015 60.9527L212.669 62.2826ZM222.931 62.2562C223.213 60.8359 223.68 59.6794 224.336 58.7752C225.176 57.6074 226.227 57.0234 227.493 57.0234C228.521 57.0234 229.267 57.4491 229.723 58.3005C229.987 58.7978 230.122 59.3403 230.122 59.9242C230.122 60.8246 230.051 61.6007 229.915 62.2562C229.633 63.5974 229.143 64.7539 228.446 65.7334C227.613 66.905 226.551 67.489 225.263 67.489C224.001 67.489 223.194 66.9088 222.852 65.7485C222.738 65.3717 222.686 64.8067 222.686 64.0607C222.686 63.7744 222.712 63.473 222.761 63.1453C222.787 62.9833 222.844 62.6857 222.931 62.2562ZM224.34 62.2826C224.306 62.4107 224.26 62.648 224.208 62.9908C224.121 63.5559 224.076 63.9816 224.076 64.2642C224.076 65.5036 224.581 66.1214 225.583 66.1214C226.487 66.1214 227.233 65.5262 227.828 64.332C228.273 63.4354 228.551 62.4408 228.664 61.3407C228.698 61.0055 228.717 60.7304 228.717 60.5157C228.717 59.1331 228.216 58.4399 227.225 58.4399C226.408 58.4399 225.756 58.8581 225.266 59.6907C224.969 60.2068 224.773 60.6287 224.69 60.9527L224.34 62.2826ZM236.549 60.7493H235.133C235.355 59.6831 235.837 58.8054 236.576 58.1197C237.356 57.3889 238.275 57.0234 239.333 57.0234C239.744 57.0234 240.136 57.1063 240.505 57.2683C241.228 57.5848 241.68 58.131 241.857 58.9033C241.903 59.0841 241.925 59.2687 241.925 59.4571C241.925 60.6702 241.323 61.8041 240.121 62.8627L239.141 63.7254L236.719 65.8238H240.765L240.467 67.2554H233.185L239.247 61.8983C239.469 61.6986 239.684 61.4726 239.887 61.2127C240.264 60.7418 240.456 60.2558 240.456 59.7547C240.456 59.3441 240.313 59.0201 240.034 58.7865C239.755 58.5567 239.405 58.4399 238.987 58.4399C238.143 58.4399 237.472 58.8317 236.975 59.6153L236.741 60.0636C236.734 60.0749 236.67 60.301 236.549 60.7493Z" fill="white"/>
<path fill-rule="evenodd" clip-rule="evenodd" d="M110.612 61.2891H129.761C130.142 61.2891 130.454 61.6018 130.454 61.9822C130.454 62.3627 130.142 62.6717 129.761 62.6717H110.612C110.232 62.6717 109.919 62.3627 109.919 61.9822C109.919 61.6018 110.232 61.2891 110.612 61.2891Z" fill="white"/>
<path fill-rule="evenodd" clip-rule="evenodd" d="M266.162 61.2891H285.315C285.695 61.2891 286.008 61.6018 286.008 61.9822C286.008 62.3627 285.695 62.6717 285.315 62.6717H266.162C265.782 62.6717 265.473 62.3627 265.473 61.9822C265.473 61.6018 265.782 61.2891 266.162 61.2891Z" fill="white"/>
</svg>
